<?xml version="1.0" encoding="utf-8"?>
<!-- Generator: Adobe Illustrator 18.1.1, SVG Export Plug-In . SVG Version: 6.00 Build 0)  -->
<svg version="1.1" id="Layer_1" xmlns="http://www.w3.org/2000/svg" xmlns:xlink="http://www.w3.org/1999/xlink" x="0px" y="0px"
	 width="250px" height="80px" viewBox="0 0 250 80" enable-background="new 0 0 250 80" xml:space="preserve">
<g>
	<path fill="#FFFFFF" d="M113.2,44.8l-0.7-0.4c-0.8,1.3-2.5,4.3-6.3,4.3c-4.8,0-6.6-3.7-6.6-9.5c0-5.3,1.5-8.6,5.3-8.6
		c4.4,0,5.6,3.2,5.8,4.9h0.6l1.4-2.7c0.1-0.1,0.2-0.4,0.2-0.7c0-2.3-3.5-3.2-7-3.2c-5.5,0-10.1,3.2-10.1,11.3
		c0,6.9,3.2,10.4,9.2,10.4c2.7,0,5-0.5,5.8-1.2c0.2-0.2,0.7-1.1,1.4-2.4L113.2,44.8L113.2,44.8z"/>
	<path fill-rule="evenodd" clip-rule="evenodd" fill="#FFFFFF" d="M121,50.7c5,0,7.7-2.8,7.7-8.7c0-5.1-2.6-7.2-6.8-7.2
		c-3.8,0-7.4,2-7.4,7.9C114.4,47.8,116.5,50.7,121,50.7L121,50.7z M117.8,41.9c0-3.1,0.9-5.7,3.3-5.7c3,0,4.1,2.3,4.1,6.5
		c0,3.5-0.7,6.6-3.3,6.6C118.9,49.3,117.8,46.6,117.8,41.9L117.8,41.9z"/>
	<path fill="#FFFFFF" d="M140.7,47.3c0,1.2,0,1.6-0.9,1.9l-1.2,0.4v0.7h7.5v-0.7l-1.2-0.4c-1-0.3-1-0.6-1-1.9v-7.1
		c0-4-1.3-5.4-4.9-5.4c-2.4,0-3.4,1.4-4.1,1.4c-0.4,0-0.6-0.7-0.7-1.3l-4.9,0.7v0.6l1.2,0.4c1,0.3,1,0.5,1,1.7v8.9
		c0,1.3,0,1.6-1,1.9l-1.2,0.4v0.7h7.5v-0.7l-1.2-0.4c-0.9-0.3-0.9-0.7-0.9-1.9v-8c0-1.8,0.7-2.8,2.9-2.8c2.8,0,3.2,1.7,3.2,4.2V47.3
		L140.7,47.3z"/>
	<path fill="#FFFFFF" d="M159.5,46.6l-0.6-0.5l-0.4,0.5c-0.7,0.9-2.2,2.2-4.1,2.2c-3.2,0-4.4-2.6-4.4-6.6c0-3.1,0.7-6,3.1-6
		c2.8,0,3.3,2.9,3.4,4.1h0.6l1.5-2.3c0.1-0.2,0.3-0.5,0.3-0.8c0-1.3-2.1-2.4-5-2.4c-4.1,0-7.4,2.6-7.4,7.8c0,5.1,1.7,8.1,6.6,8.1
		c3.6,0,4.1-1,5.9-3.5L159.5,46.6L159.5,46.6z"/>
	<path fill-rule="evenodd" clip-rule="evenodd" fill="#FFFFFF" d="M166.7,50.7c5,0,7.7-2.8,7.7-8.7c0-5.1-2.6-7.2-6.8-7.2
		c-3.8,0-7.4,2-7.4,7.9C160.1,47.8,162.2,50.7,166.7,50.7L166.7,50.7z M163.5,41.9c0-3.1,0.9-5.7,3.3-5.7c3,0,4.1,2.3,4.1,6.5
		c0,3.5-0.7,6.6-3.3,6.6C164.6,49.3,163.5,46.6,163.5,41.9L163.5,41.9z"/>
	<path fill="#FFFFFF" d="M175,50.3h7.9v-0.7l-1.4-0.4c-1-0.3-1-1.2-1-2.2v-7.9c0-1.4,0.5-2.1,1.9-2.1c1.6,0,2,0.9,2.3,1.6h0.5
		l0.9-2.1c0-0.1,0.2-0.4,0.2-0.6c0-0.9-1-1.2-2.1-1.2c-0.7,0-1.5,0.4-2.1,0.8c-0.6,0.4-1.1,0.8-1.3,0.8c-0.4,0-0.6-0.9-0.7-1.5
		l-4.9,0.7v0.7l1.2,0.3c1,0.2,1,0.8,1,1.7V47c0,1,0,1.9-1,2.2l-1.2,0.4V50.3L175,50.3z"/>
	<path fill-rule="evenodd" clip-rule="evenodd" fill="#FFFFFF" d="M201.8,50.3v-0.7l-1.2-0.4c-1-0.3-1-0.6-1-1.9V28.1l-0.3-0.2
		l-5.3,0.7v0.7l1.3,0.4c1.1,0.3,1.1,0.4,1.1,1.8v2.8c0,0.7-0.1,0.7-0.5,0.7c-0.4,0-0.8,0-1.2-0.1c-0.4,0-0.8-0.1-1.2-0.1
		c-3.9,0-7.2,2.5-7.2,8.2c0,4.8,1.3,7.7,5.4,7.7c1.5,0,2.3-0.3,3-0.7c0.6-0.3,1-0.7,1.3-0.7c0.2,0,0.3,0.2,0.4,0.3
		c0.1,0.2,0.2,0.4,0.3,0.7H201.8L201.8,50.3z M196.3,46.1c0,2.9-0.9,2.9-3,2.9c-3,0-3.6-3.2-3.6-7.1c0-3.3,0.8-5.7,3.4-5.7
		c2.7,0,3.2,1.1,3.2,3.4V46.1L196.3,46.1z"/>
	<path fill-rule="evenodd" clip-rule="evenodd" fill="#FFFFFF" d="M202.3,50.3h7.7v-0.7l-1.7-0.6c-0.6-0.2-0.6-0.7-0.6-1.7V35
		l-0.2-0.2l-5.3,0.7v0.7l1.2,0.4c1,0.3,1,0.4,1,1.8v8.9c0,1.3-0.1,1.6-1,1.9l-1.3,0.4V50.3L202.3,50.3z M206.2,32.2
		c1.1,0,2-0.7,2-1.8c0-1.2-0.8-1.8-2-1.8c-1.1,0-2,0.6-2,1.8C204.2,31.5,205.1,32.2,206.2,32.2L206.2,32.2z"/>
	<path fill-rule="evenodd" clip-rule="evenodd" fill="#FFFFFF" d="M224.4,50.3v-0.7l-1.3-0.4c-0.9-0.3-0.9-0.7-0.9-2.2v-7.3
		c0-4-1.8-4.9-5-4.9c-1.7,0-3.2,0.7-3.9,1.4l-1.7,1.8l0.5,0.5c0.7-0.6,2.1-1.9,3.8-1.8c2.6,0,3.2,1.1,3.2,3.8c0,1.3-2.1,1-4.1,1.5
		c-1.8,0.5-4.9,1.4-4.9,4.6c0,2.7,1.8,4.2,4.2,4.2c1.4,0,2.3-0.3,3-0.7c0.7-0.3,1.1-0.7,1.5-0.7c0.2,0,0.3,0.1,0.4,0.3
		c0.1,0.2,0.2,0.4,0.3,0.6H224.4L224.4,50.3z M219,45.5c0,2.1,0,3.6-2.9,3.6c-1.8,0-2.7-1.3-2.7-3.4c0-2.5,2-3,5.1-3
		c0.5,0,0.6,0.2,0.6,0.9V45.5L219,45.5z"/>
	<path fill="#FFFFFF" d="M96.1,67.6h4.9v-0.4l-0.9-0.3c-0.7-0.2-0.7-0.4-0.7-1.6v-8.1c0-0.4,0.1-0.6,1.1-0.6c1.6,0,2.6,0.5,2.6,2.6
		c0,2.5-1.7,2.9-2.9,2.9l-0.1,0.1l0.3,0.6c0.1,0,0.3,0,0.4,0c2.9,0,4.5-1.5,4.5-4c0-2.7-1.7-3.1-3.7-3.1h-5.5v0.4l0.8,0.3
		c0.6,0.2,0.6,0.4,0.6,1.3v7.6c0,1.1,0,1.4-0.6,1.6l-0.8,0.3V67.6L96.1,67.6z"/>
	<path fill="#FFFFFF" d="M115.4,67.6v-0.4l-0.9-0.3c-0.4-0.1-0.4-0.4-0.4-0.8v-7l-0.1-0.1l-3,0.4v0.3l0.7,0.2c0.5,0.2,0.6,0.3,0.6,1
		v4c0,1.2-0.2,2-1.7,2c-1.4,0-1.8-0.7-1.8-2.3v-5.5l-0.1-0.1l-2.9,0.4v0.3l0.7,0.2c0.5,0.2,0.5,0.3,0.5,1v4.3c0,1.8,0.8,2.7,2.6,2.7
		c0.9,0,1.4-0.2,1.7-0.4c0.3-0.2,0.5-0.4,0.9-0.4c0.1,0,0.2,0.1,0.2,0.2c0.1,0.1,0.1,0.2,0.1,0.4H115.4L115.4,67.6z"/>
	<path fill-rule="evenodd" clip-rule="evenodd" fill="#FFFFFF" d="M116.6,67.8l0.2-0.1c0.1-0.1,0.3-0.1,0.7-0.1
		c0.2,0,0.5,0.1,0.8,0.1c0.3,0.1,0.8,0.1,1.3,0.1c2.9,0,4.4-1.6,4.4-4.9c0-2.8-1.1-4.1-3.3-4.1c-0.7,0-1.2,0.2-1.6,0.4
		c-0.4,0.2-0.6,0.4-0.8,0.4c-0.2,0-0.2-0.2-0.2-0.5v-4.1l-0.2-0.1l-2.9,0.4v0.4l0.7,0.2c0.5,0.2,0.6,0.3,0.6,1v10.7L116.6,67.8
		L116.6,67.8z M118.2,61.7c0-1.1,0.1-1.9,1.7-1.9c1.6,0,2.2,1.4,2.2,3.7c0,2.1-0.3,3.5-2.1,3.5c-1.4,0-1.8-0.6-1.8-1.8V61.7
		L118.2,61.7z"/>
	<path fill="#FFFFFF" d="M124.5,67.6h4.3v-0.4l-0.7-0.2c-0.6-0.2-0.5-0.8-0.5-1.2V55.1l-0.2-0.1l-2.9,0.4v0.4l0.7,0.2
		c0.5,0.1,0.6,0.3,0.6,1v8.8c0,0.4,0,1.1-0.6,1.2l-0.7,0.2V67.6L124.5,67.6z"/>
	<path fill-rule="evenodd" clip-rule="evenodd" fill="#FFFFFF" d="M129.4,67.6h4.3v-0.4l-0.9-0.3c-0.4-0.1-0.3-0.4-0.3-1V59
		l-0.1-0.1l-3,0.4v0.4l0.7,0.2c0.6,0.2,0.6,0.2,0.6,1v5c0,0.7-0.1,0.9-0.5,1.1l-0.7,0.2V67.6L129.4,67.6z M131.6,57.4
		c0.6,0,1.1-0.4,1.1-1c0-0.7-0.5-1-1.1-1c-0.6,0-1.1,0.3-1.1,1C130.5,57,130.9,57.4,131.6,57.4L131.6,57.4z"/>
	<path fill="#FFFFFF" d="M139.4,61.6l0.5-1.3c0.1-0.1,0.1-0.3,0.1-0.4c0-0.6-1.2-1.1-2.5-1.1c-1.6,0-3.1,0.9-3.1,2.5
		c0,3.4,4.6,1.9,4.6,4.3c0,0.9-0.6,1.4-1.5,1.4c-1.7,0-2.2-1.5-2.4-2.2h-0.3l-0.6,1.3c-0.1,0.2-0.1,0.3-0.1,0.4
		c0,0.9,1.5,1.3,2.6,1.3c2,0,3.6-1.1,3.6-2.9c0-1.1-0.2-1.6-1.3-2.2c-1.2-0.6-3.3-0.6-3.3-2c0-0.7,0.6-1.1,1.3-1.1
		c1.4,0,2,1.3,2,1.9H139.4L139.4,61.6z"/>
	<path fill="#FFFFFF" d="M140.9,67.6h4.3v-0.4l-0.6-0.2c-0.6-0.2-0.6-0.5-0.6-1.3v-4.3c0-0.8,0.1-1.6,1.6-1.6c1.6,0,1.8,1,1.8,2.5
		v3.4c0,0.8,0,1.1-0.5,1.3l-0.6,0.2v0.4h4.3v-0.4l-0.7-0.2c-0.6-0.2-0.5-0.4-0.5-1.2v-3.5c0-2.2-0.3-3.4-2.7-3.4
		c-0.7,0-1.2,0.2-1.6,0.4c-0.3,0.2-0.5,0.4-0.7,0.4c-0.2,0-0.2-0.2-0.2-0.5v-4.1l-0.1-0.1l-2.9,0.4v0.4l0.7,0.2
		c0.5,0.2,0.5,0.3,0.5,1v8.8c0,0.8,0,1.1-0.5,1.2l-0.7,0.2V67.6L140.9,67.6z"/>
	<path fill-rule="evenodd" clip-rule="evenodd" fill="#FFFFFF" d="M151,67.6h4.3v-0.4l-0.9-0.3c-0.4-0.1-0.3-0.4-0.3-1V59l-0.1-0.1
		l-3,0.4v0.4l0.7,0.2c0.6,0.2,0.6,0.2,0.6,1v5c0,0.7-0.1,0.9-0.5,1.1l-0.7,0.2V67.6L151,67.6z M153.2,57.4c0.6,0,1.1-0.4,1.1-1
		c0-0.7-0.5-1-1.1-1c-0.6,0-1.1,0.3-1.1,1C152.1,57,152.5,57.4,153.2,57.4L153.2,57.4z"/>
	<path fill="#FFFFFF" d="M162.3,65.9c0,0.7,0,0.9-0.5,1.1l-0.7,0.2v0.4h4.3v-0.4l-0.7-0.2c-0.6-0.2-0.6-0.3-0.6-1.1v-4
		c0-2.3-0.7-3.1-2.8-3.1c-1.3,0-1.9,0.8-2.3,0.8c-0.2,0-0.3-0.4-0.4-0.7l-2.8,0.4v0.3l0.7,0.2c0.6,0.2,0.6,0.3,0.6,1v5
		c0,0.7,0,0.9-0.6,1.1l-0.7,0.2v0.4h4.3v-0.4l-0.7-0.2c-0.5-0.2-0.5-0.4-0.5-1.1v-4.5c0-1,0.4-1.6,1.6-1.6c1.6,0,1.8,1,1.8,2.4V65.9
		L162.3,65.9z"/>
	<path fill-rule="evenodd" clip-rule="evenodd" fill="#FFFFFF" d="M174.1,58.7l-0.2-0.3l-1.6,0.6c-0.2,0.1-0.3,0.2-0.5,0.2
		c-0.3,0-0.5-0.3-2.1-0.3c-1.9,0-3.5,1.1-3.5,2.9c0,2.1,1.6,2,1.6,2.4c0,0.4-1.4,0.4-1.4,2.2c0,0.4,0.9,0.7,0.9,0.9
		c0,0.5-1.4,0.2-1.4,1.7c0,1.9,1.8,2.6,4,2.6c2.5,0,4.2-1.3,4.2-3.4c0-1.8-1.2-2.4-3.1-2.4c-0.5,0-1,0-1.4,0c-1,0-1.7,0-1.7-0.7
		c0-0.5,0.5-0.8,1.8-0.8c1.3,0,3.5-0.5,3.5-2.8c0-0.6-0.3-1.1-0.3-1.3c0-0.2,0.2-0.3,0.3-0.4L174.1,58.7L174.1,58.7z M168,61.4
		c0-1,0.5-1.8,1.5-1.8c1.1,0,1.8,0.8,1.8,2.1c0,1.1-0.5,1.8-1.5,1.8C168.7,63.5,168,62.6,168,61.4L168,61.4z M167.3,68.7
		c0-1.3,1.5-1.5,2.6-1.5c1.3,0,2.4,0.4,2.4,1.7c0,1.2-0.8,1.8-2.3,1.8C168.4,70.7,167.3,70,167.3,68.7L167.3,68.7z"/>
	<path fill="#FFFFFF" d="M178.5,67.6h4.7v-0.4l-0.8-0.3c-0.6-0.2-0.6-0.4-0.6-1.4v-3.1c0-0.5,0.1-0.6,0.6-0.6h4
		c0.6,0,0.6,0.1,0.6,0.6v3.2c0,1,0,1.3-0.6,1.4l-0.8,0.3v0.4h4.7v-0.4l-0.7-0.2c-0.3-0.1-0.7-0.1-0.7-1v-8.5c0-0.8,0.1-0.9,0.6-1.1
		l0.8-0.3v-0.4h-4.7v0.4l0.8,0.3c0.6,0.2,0.6,0.5,0.6,1.3v2.6c0,0.6-0.1,0.7-0.7,0.7h-3.9c-0.5,0-0.6,0-0.6-0.5v-2.5
		c0-1-0.1-1.2,0.6-1.4l0.8-0.3v-0.4h-4.7v0.4l0.8,0.3c0.6,0.2,0.6,0.4,0.6,1.3v7.8c0,1,0,1.3-0.6,1.4l-0.8,0.3V67.6L178.5,67.6z"/>
	<path fill-rule="evenodd" clip-rule="evenodd" fill="#FFFFFF" d="M194.4,67.8c2.8,0,4.3-1.6,4.3-4.9c0-2.9-1.5-4.1-3.9-4.1
		c-2.1,0-4.2,1.1-4.2,4.4C190.7,66.2,191.8,67.8,194.4,67.8L194.4,67.8z M192.6,62.9c0-1.8,0.5-3.2,1.9-3.2c1.7,0,2.3,1.3,2.3,3.7
		c0,2-0.4,3.7-1.9,3.7C193.2,67.1,192.6,65.6,192.6,62.9L192.6,62.9z"/>
	<path fill="#FFFFFF" d="M208.7,67.6v-0.4l-0.9-0.3c-0.4-0.1-0.4-0.4-0.4-0.8v-7l-0.1-0.1l-3,0.4v0.3l0.7,0.2c0.5,0.2,0.6,0.3,0.6,1
		v4c0,1.2-0.2,2-1.7,2c-1.4,0-1.8-0.7-1.8-2.3v-5.5l-0.1-0.1l-2.9,0.4v0.3l0.7,0.2c0.5,0.2,0.5,0.3,0.5,1v4.3c0,1.8,0.8,2.7,2.6,2.7
		c0.9,0,1.4-0.2,1.7-0.4c0.3-0.2,0.5-0.4,0.9-0.4c0.1,0,0.2,0.1,0.2,0.2c0.1,0.1,0.1,0.2,0.1,0.4H208.7L208.7,67.6z"/>
	<path fill="#FFFFFF" d="M214.4,61.6l0.5-1.3c0.1-0.1,0.1-0.3,0.1-0.4c0-0.6-1.2-1.1-2.5-1.1c-1.6,0-3.1,0.9-3.1,2.5
		c0,3.4,4.6,1.9,4.6,4.3c0,0.9-0.6,1.4-1.5,1.4c-1.7,0-2.2-1.5-2.4-2.2h-0.3l-0.6,1.3c-0.1,0.2-0.1,0.3-0.1,0.4
		c0,0.9,1.5,1.3,2.6,1.3c2,0,3.6-1.1,3.6-2.9c0-1.1-0.2-1.6-1.3-2.2c-1.2-0.6-3.3-0.6-3.3-2c0-0.7,0.6-1.1,1.3-1.1
		c1.4,0,2,1.3,2,1.9H214.4L214.4,61.6z"/>
	<path fill-rule="evenodd" clip-rule="evenodd" fill="#FFFFFF" d="M223.5,66.4l-0.2-0.4c-0.5,0.3-1.3,0.8-2.4,0.8
		c-1.9,0-2.8-1.6-2.8-3c0-0.5,0.3-0.5,0.7-0.5h4c0.3,0,0.4,0,0.6-0.2c0.2-0.1,0.2-0.2,0.2-0.7c0-2.2-1-3.5-3.4-3.5
		c-2.3,0-4.1,1.5-4.1,4.3c0,3,1.2,4.7,3.7,4.7c1,0,1.8-0.2,2.3-0.6L223.5,66.4L223.5,66.4z M218.9,62.5c-0.5,0-0.7,0-0.7-0.5
		c0-1.2,0.5-2.3,1.7-2.3c1.3,0,2.1,1.1,2.1,2.3c0,0.5-0.1,0.5-0.6,0.5H218.9L218.9,62.5z"/>
	<path fill="#FFFFFF" d="M57,20.8c0.2,0.4-4.2-1.2-4-6.3c0.2-4.1,4.7-5.2,3.7-9.6c0,0,11.2,12.4,2,15.9c0,0,1.3-1.5,1.2-3.6
		c-0.1-2.1-1.5-4.4-1.5-4.4C58.4,15.5,54.8,16.6,57,20.8L57,20.8z"/>
	<path fill-rule="evenodd" clip-rule="evenodd" fill="#FFFFFF" d="M71.6,53.4c-2.5,0.2-4.4-0.4-6.8-0.8c-0.7-0.1-2.1-0.2-2.8-0.2
		c-1.7,0.1-2.8,1.4-4,2.5c-1.2-1.1-2.3-2.4-4-2.5c-0.7,0-2.1,0.1-2.8,0.2c-2.4,0.3-4.3,0.9-6.8,0.8c-2,2.7-4,5.3-6,8
		c1.5,0,2.9-0.1,4.4-0.4c4.8-0.9,12.1-3,15.2,2.3c3.1-5.3,10.4-3.3,15.2-2.3c1.5,0.3,2.9,0.4,4.4,0.4C75.6,58.7,73.6,56.1,71.6,53.4
		L71.6,53.4z M54.1,26.5l-0.2-3.4h8.2l-0.2,3.4c12.7,1.9,22.4,12.8,22.4,26c0,2.2-0.3,4.2-0.7,6.2l6.9,8.9H60.3V75L58,72.7L55.7,75
		v-7.4H25.6l6.9-8.9c-0.5-2-0.7-4.1-0.7-6.2C31.7,39.3,41.5,28.4,54.1,26.5L54.1,26.5z M81.8,56.5l-2.9-3.7h-2.7l9.7,12.9H60.3v-0.5
		c0.1-1,0.8-3,4.5-3c6.6,0,8.9,2.6,16.8,1.1c0,0-9.1-12-9.1-12c-2.9,0.7-6.9-1-10-1c-0.6,0-1.5,0.1-2,0.3l1.2-21.8
		c11.5,1.8,20.3,11.8,20.3,23.8C82.1,53.8,82,55.2,81.8,56.5L81.8,56.5z M54.2,28.7l1.2,21.8c-0.5-0.2-1.4-0.3-2-0.3
		c-3.1,0-7.1,1.7-10,1c0,0-9.1,12-9.1,12c7.9,1.5,10.2-1.1,16.8-1.1c4.8,0,4.5,3.5,4.5,3.5H30.1l9.7-12.9h-2.7l-2.9,3.7
		c-0.2-1.3-0.3-2.6-0.3-4C33.9,40.4,42.7,30.5,54.2,28.7L54.2,28.7z"/>
</g>
<g>
	<path fill="#FFFFFF" d="M-84.6,123.2c0-2.7,2.1-4.9,4.8-4.9c2.6,0,4.8,2.2,4.8,4.9c0,2.7-2.1,4.9-4.8,4.9
		C-82.4,128.1-84.6,125.9-84.6,123.2z M-75.8,123.2c0-2.2-1.8-4.1-3.9-4.1c-2.2,0-4,1.9-4,4.1c0,2.2,1.8,4.1,4,4.1
		C-77.6,127.3-75.8,125.4-75.8,123.2z M-81.7,120.4h2c1.1,0,2,0.4,2,1.3c0,0.8-0.5,1.2-1.2,1.5l1.7,2.2l-1,0.2l-1.6-2.3h-1v2.2h-0.9
		V120.4z M-80.7,122.9h0.6c1.2,0,1.5-0.7,1.5-1.1c0-0.6-0.6-0.9-1.2-0.9h-0.9V122.9z"/>
</g>
</svg>
