<?xml version="1.0" encoding="utf-8"?>
<!-- Generator: Adobe Illustrator 18.1.1, SVG Export Plug-In . SVG Version: 6.00 Build 0)  -->
<svg version="1.1" id="Layer_1" xmlns="http://www.w3.org/2000/svg" xmlns:xlink="http://www.w3.org/1999/xlink" x="0px" y="0px"
	 width="250px" height="80px" viewBox="0 0 250 80" enable-background="new 0 0 250 80" xml:space="preserve">
<g>
	<path fill="#FFFFFF" d="M-84.6,123.2c0-2.7,2.1-4.9,4.8-4.9c2.6,0,4.8,2.2,4.8,4.9c0,2.7-2.1,4.9-4.8,4.9
		C-82.4,128.1-84.6,125.9-84.6,123.2z M-75.8,123.2c0-2.2-1.8-4.1-3.9-4.1c-2.2,0-4,1.9-4,4.1c0,2.2,1.8,4.1,4,4.1
		C-77.6,127.3-75.8,125.4-75.8,123.2z M-81.7,120.4h2c1.1,0,2,0.4,2,1.3c0,0.8-0.5,1.2-1.2,1.5l1.7,2.2l-1,0.2l-1.6-2.3h-1v2.2h-0.9
		V120.4z M-80.7,122.9h0.6c1.2,0,1.5-0.7,1.5-1.1c0-0.6-0.6-0.9-1.2-0.9h-0.9V122.9z"/>
</g>
<g>
	<path fill="#FFFFFF" d="M64.9,12.4c0-0.1,0.1-0.6-0.1-0.6h-2.1c-0.8,0-0.8,0.2-1.1,0.9c0,0.1-0.1,0.3-0.2,0.3
		c-0.1,0-0.1-0.1-0.1-0.2l0.1-1.3c0-0.2,0-0.5,0.2-0.5c1,0,2,0.1,3.7,0.1c2.4,0,3.6-0.1,3.8-0.1c0.3,0,0.4,0.1,0.4,0.4l0.1,1.1
		c0,0.1,0,0.3-0.1,0.3c-0.5,0,0.2-1-1.1-1h-1.9c-0.6,0-0.5-0.1-0.5,0.6v6.8c0,1.1,1.1,0.7,1.1,1.1c0,0,0,0.2-0.1,0.2
		c-0.3,0-0.7-0.1-1.1-0.1c-1.5,0-1.7,0.1-1.8,0.1c-0.1,0-0.2,0-0.2-0.2c0-0.3,1-0.2,1-1V12.4z"/>
	<path fill="#FFFFFF" d="M71,14.1c0-0.7-0.9-0.5-0.9-0.8c0-0.1,0.1-0.1,0.2-0.1c0.4,0,0.7,0,1.1,0c0.3,0,0.6,0,0.9,0
		c0.2,0,0.2,0.1,0.2,0.1c0,0.2-0.7,0-0.7,0.8v2.2c0,0.1,0,0.2,0.2,0.2h3.7c0.1,0,0.1-0.3,0.1-0.3v-2.1c0-0.7-0.8-0.5-0.8-0.8
		c0-0.1,0-0.1,0.2-0.1c0.3,0,0.9,0,1.1,0c0.4,0,0.5,0,0.7,0c0.3,0,0.3,0.1,0.3,0.2c0,0.2-0.7,0-0.7,0.7v5.4c0,0.7,0.9,0.6,0.9,0.8
		c0,0,0,0.1-0.1,0.1c-0.3,0-0.6,0-1,0c-0.7,0-0.9,0-1.1,0c-0.1,0-0.2,0-0.2-0.1c0-0.2,0.7-0.1,0.7-0.7v-2.5c0-0.2,0-0.3-0.1-0.3
		h-3.8c-0.1,0-0.1,0.1-0.1,0.2v2.5c0,0.7,1,0.5,1,0.8c0,0.1-0.1,0.1-0.2,0.1c-0.1,0-0.9,0-1.4,0c-0.7,0-0.8,0-0.9,0
		c-0.1,0-0.1-0.1-0.1-0.2c0-0.3,0.8,0,0.8-1V14.1z"/>
	<path fill="#FFFFFF" d="M79.8,16.1c0,0.4,0,0.4,0.4,0.4h1.1c1,0,0.8-0.8,1-0.8c0.1,0,0.1,0.1,0.1,0.2c0,0.4,0,0.7,0,1.1
		c0,0.3,0,0.5,0,0.8c0,0.1,0,0.1-0.1,0.1c-0.3,0,0-0.9-0.8-0.9H80c-0.2,0-0.2,0.2-0.2,0.3v1.9c0,0.6-0.1,0.9,0.8,0.9
		c2.3,0,2.6-1.1,2.8-1.1c0.1,0,0.1,0.1,0.1,0.1c0,0.4-0.3,0.7-0.5,1c-0.3,0.4-0.5,0.4-1,0.4c-0.8,0-1.5-0.1-2.3,0
		c-0.4,0-0.8,0-1.2,0c-0.1,0-0.1,0-0.1-0.1c0-0.1,0.1-0.1,0.4-0.3c0.3-0.1,0.3-0.4,0.3-0.9v-4.8c0-0.5,0-1-0.5-1.1
		c-0.1,0-0.3,0-0.3-0.2c0-0.1,0.1-0.1,0.3-0.1c1.9,0,2.4,0,2.8,0c0.2,0,1.1,0,1.4,0c0.1,0,0.1,0.1,0.1,0.2c0,1.2-0.1,1.2-0.2,1.2
		c-0.2,0-0.1-0.5-0.2-0.7c-0.3-0.4-1.3-0.3-1.7-0.3c-1,0-0.9,0-0.9,0.7V16.1z"/>
	<path fill="#FFFFFF" d="M66.2,39.6c0,1.3-0.2,1.9,1.9,1.9c5.7,0,6.5-2.3,6.8-2.3c0.2,0,0.2,0.2,0.2,0.3c0,0.8-0.6,1.6-1.2,2.2
		c-0.8,0.8-1.3,0.8-2.4,0.8c-1.9,0-3.7-0.1-5.6-0.1c-1,0-2,0.1-3,0.1c-0.2,0-0.4,0-0.4-0.2c0-0.3,0.3-0.2,1.1-0.6
		c0.6-0.3,0.7-0.9,0.7-2V28.2c0-1.2-2.1-1-2.1-1.5c0-0.2,0.2-0.3,0.5-0.3c0.5,0,1.3,0.1,2.5,0.1c1.4,0,2-0.1,2.3-0.1
		c0.3,0,0.5,0,0.5,0.3c0,0.5-1.8,0-1.8,1.9V39.6z"/>
	<path fill="#FFFFFF" d="M78.2,38.2c0,2.5,1.8,3.7,4.1,3.7c3.2,0,4-2,4-3.8v-5.1c0-1.6-1.6-0.9-1.6-1.5c0-0.1,0.1-0.2,0.2-0.2
		c0.7,0,1.3,0.1,2,0.1c0.3,0,0.6-0.1,0.9-0.1c0.1,0,0.2,0.1,0.2,0.2c0,0.4-1,0.1-1,1.5v4.9c0,0.8,0.2,4.7-4.8,4.7
		c-4.5,0-5.4-2.3-5.4-4.8v-5.3c0-0.9-1.4-0.6-1.4-1.1c0-0.1,0.3-0.2,0.4-0.2c0.4,0,0.9,0.1,1.3,0.1c0.5,0,1.1-0.1,1.6-0.1
		c0.1,0,0.5,0,0.5,0.2c0,0.4-1.1,0-1.1,1.1V38.2z"/>
	<path fill="#FFFFFF" d="M93.7,32.8c0-0.1,0.1-0.7-0.2-0.7h-2.8c-1.1,0-1.1,0.2-1.4,1.1c-0.1,0.2-0.1,0.4-0.3,0.4
		c-0.1,0-0.2-0.1-0.2-0.2l0.2-1.5c0-0.2,0-0.6,0.3-0.6c1.3,0,2.7,0.1,4.9,0.1c3.1,0,4.7-0.1,5-0.1c0.4,0,0.5,0.1,0.5,0.5l0.1,1.3
		c0,0.2,0,0.3-0.2,0.3c-0.6,0,0.3-1.2-1.5-1.2h-2.5c-0.8,0-0.7-0.1-0.7,0.8v8.1c0,1.3,1.4,0.8,1.4,1.3c0,0,0,0.2-0.2,0.2
		c-0.4,0-0.9-0.1-1.4-0.1c-1.9,0-2.2,0.1-2.3,0.1c-0.2,0-0.2,0-0.2-0.2c0-0.4,1.4-0.2,1.4-1.2V32.8z"/>
	<path fill="#FFFFFF" d="M102,32.6c0-1.2-1.5-0.8-1.5-1.2c0-0.1,0.1-0.2,0.3-0.2c0.6,0,1.3,0.1,1.9,0.1c0.5,0,1.1-0.1,1.6-0.1
		c0.3,0,0.3,0.1,0.3,0.2c0,0.3-1.2,0-1.2,1.2V36c0,0.2,0,0.3,0.3,0.3h6.3c0.2,0,0.1-0.4,0.1-0.5v-3.2c0-1.1-1.3-0.8-1.3-1.2
		c0-0.1,0-0.2,0.3-0.2c0.6,0,1.5,0.1,1.8,0.1c0.6,0,0.9-0.1,1.2-0.1c0.4,0,0.5,0.2,0.5,0.3c0,0.3-1.1,0-1.1,1.1v8.4
		c0,1.2,1.6,0.9,1.6,1.3c0,0-0.1,0.2-0.2,0.2c-0.5,0-1-0.1-1.6-0.1c-1.1,0-1.6,0.1-1.9,0.1c-0.2,0-0.4,0-0.4-0.2
		c0-0.4,1.2-0.2,1.2-1.2v-3.8c0-0.3,0.1-0.4-0.1-0.4h-6.3c-0.2,0-0.2,0.1-0.2,0.3V41c0,1.1,1.6,0.7,1.6,1.2c0,0.1-0.1,0.1-0.3,0.1
		c-0.2,0-1.5-0.1-2.4-0.1c-1.2,0-1.4,0.1-1.5,0.1c-0.1,0-0.2-0.1-0.2-0.2c0-0.5,1.3,0.1,1.3-1.5V32.6z"/>
	<path fill="#FFFFFF" d="M116.6,35.8c0,0.5,0,0.5,0.7,0.5h1.9c1.8,0,1.3-1.3,1.7-1.3c0.1,0,0.2,0.2,0.2,0.3c0,0.6,0,1.1,0,1.6
		c0,0.4,0,0.8,0,1.2c0,0.1-0.1,0.2-0.2,0.2c-0.5,0,0.1-1.4-1.4-1.4h-2.5c-0.4,0-0.3,0.3-0.3,0.5v2.9c0,0.9-0.1,1.3,1.3,1.3
		c4,0,4.5-1.6,4.8-1.6c0.1,0,0.1,0.2,0.1,0.2c0,0.6-0.4,1.1-0.9,1.5c-0.5,0.6-0.9,0.5-1.7,0.5c-1.3,0-2.6-0.1-3.9-0.1
		c-0.7,0-1.4,0.1-2.1,0.1c-0.2,0-0.3,0-0.3-0.2c0-0.2,0.2-0.2,0.8-0.4c0.4-0.2,0.5-0.6,0.5-1.4v-7.2c0-0.7,0-1.5-0.9-1.6
		c-0.1,0-0.5-0.1-0.5-0.3c0-0.1,0.1-0.2,0.6-0.2c3.2,0,4.1,0.1,4.8,0.1c0.3,0,1.9-0.1,2.5-0.1c0.1,0,0.2,0.2,0.2,0.3
		c0,1.8-0.2,1.9-0.3,1.9c-0.4,0-0.1-0.8-0.4-1.1c-0.4-0.5-2.2-0.4-2.9-0.4c-1.6,0-1.6-0.1-1.6,1V35.8z"/>
	<path fill="#FFFFFF" d="M132.2,40.7c1.2,1.7,2.1,1.2,2.1,1.5c0,0.2-1,0.2-1.1,0.2c-1.2,0-1.9-0.8-2.6-1.7l-1.9-2.8
		c-0.6-0.9-0.4-0.8-2.3-0.8c-0.5,0-0.4,0.3-0.4,0.4v3.3c0,1.4,1.8,0.9,1.8,1.4c0,0.2-0.2,0.1-0.3,0.1c-0.2,0-0.5-0.1-2-0.1
		c-0.7,0-1.3,0.1-2,0.1c-0.1,0-0.2-0.1-0.2-0.2c0-0.4,1.3-0.2,1.3-1.4v-8c0-1.5-1.5-0.9-1.5-1.4c0-0.1,0.1-0.2,0.3-0.2
		c0.3,0,0.2,0.1,1.1,0.1c1,0,2-0.1,2.9-0.1c0.3,0,4.1-0.3,4.1,2.7c0,1.2-1,2.3-2.2,2.7L132.2,40.7z M126,36.3c0,0.3,1.1,0.2,1.9,0.2
		c0.7,0,2.4-0.3,2.4-2.2c0-1.9-1.6-2.6-3.3-2.6c-0.6,0-1,0-1,0.6V36.3z"/>
	<path fill="#FFFFFF" d="M143.3,38.6c-0.2-0.4-0.3-0.6-0.8-0.6h-3.8c-0.3,0-0.6,0-0.8,0.3l-1.1,2.2c-0.1,0.1-0.1,0.3-0.1,0.6
		c0,1.1,1.2,0.6,1.2,1c0,0.3-0.2,0.2-0.5,0.2c-0.5,0-1-0.1-1.4-0.1c-0.5,0-0.9,0.1-1.4,0.1c-0.1,0-0.2-0.1-0.2-0.2
		c0-0.3,0.8-0.1,1.2-1l4.1-8c1-2,1.1-2.2,1.3-2.2c0.2,0,0.3,0.5,0.4,0.6l3.6,8.1c0.3,0.6,0.5,1.2,0.9,1.8c0.5,0.7,1.5,0.4,1.5,0.8
		c0,0.1-0.1,0.1-0.2,0.1c-0.7,0-1.4-0.1-2.1-0.1c-0.5,0-0.9,0.1-1.4,0.1c-0.1,0-0.4,0-0.4-0.2c0-0.4,1-0.2,1-0.8
		c0-0.3-0.4-1.1-0.5-1.5L143.3,38.6z M138.7,37c-0.1,0.2,0,0.3,0.2,0.3h3.4c0.4,0,0.4-0.1,0.3-0.3l-1.7-3.8c-0.1-0.2-0.2-0.2-0.3,0
		L138.7,37z"/>
	<path fill="#FFFFFF" d="M149.7,34.3c0-3.3-2.1-2.4-2.1-3c0-0.1,0.2-0.2,0.3-0.2c0.3,0,0.5,0.1,0.8,0.1c0.3,0,0.5-0.1,0.8-0.1
		c0.2,0,0.3,0.3,0.4,0.4l8.2,8.4c0.1,0.1,0.2,0.2,0.2,0.2c0,0,0.1,0,0.1-0.2v-6.6c0-2.1-1.9-1.5-1.9-2c0-0.1,0.1-0.2,0.2-0.2
		c0.5,0,1,0.1,1.6,0.1c0.6,0,1.3-0.1,1.7-0.1c0.1,0,0.2,0,0.2,0.1c0,0.4-1,0.1-1,1.3v9.1c0,0.5,0,0.7-0.2,0.7
		c-0.1,0-0.3-0.1-0.7-0.4l-7.4-7.6c0,0-0.2-0.3-0.4-0.3c-0.1,0-0.1,0-0.1,0.4v6.5c0,1.4,1.5,0.9,1.5,1.3c0,0.1,0,0.2-0.2,0.2
		c-0.4,0-0.9-0.1-1.7-0.1c-0.6,0-1.5,0.1-1.6,0.1c-0.2,0-0.2-0.1-0.2-0.2c0-0.6,1.5,0.1,1.5-2.1V34.3z"/>
	<path fill="#FFFFFF" d="M176.6,26.2c4.6,0,5.9,1.7,6.6,1.7c0.2,0,0.3-0.2,0.6-0.2c0.3,0,0.3,0.4,0.3,1.8c0,1.2,0.3,1.9-0.1,1.9
		c-0.3,0-0.5-0.6-0.6-0.7c-1.5-2.4-3.3-3.9-6.4-3.9c-4.8,0-7.1,2.9-7.1,7.1c0,3.9,2.4,7.8,7.1,7.8c3.8,0,6.2-2.3,6.6-3.3
		c0-0.2,0.2-0.3,0.3-0.3c0.1,0,0.2,0.1,0.2,0.2l-0.6,2.3c0,0.1-1.8,1.8-7.3,1.8c-5,0-8.6-3.2-8.6-7.8S171.4,26.2,176.6,26.2z"/>
	<path fill="#FFFFFF" d="M186.8,32.6c0-1.2-1.5-0.8-1.5-1.2c0-0.1,0.1-0.2,0.3-0.2c0.6,0,1.3,0.1,1.9,0.1c0.5,0,1.1-0.1,1.6-0.1
		c0.3,0,0.3,0.1,0.3,0.2c0,0.3-1.2,0-1.2,1.2V36c0,0.2,0,0.3,0.3,0.3h6.3c0.2,0,0.1-0.4,0.1-0.5v-3.2c0-1.1-1.3-0.8-1.3-1.2
		c0-0.1,0-0.2,0.3-0.2c0.6,0,1.5,0.1,1.8,0.1c0.6,0,0.9-0.1,1.2-0.1c0.4,0,0.5,0.2,0.5,0.3c0,0.3-1.1,0-1.1,1.1v8.4
		c0,1.2,1.6,0.9,1.6,1.3c0,0-0.1,0.2-0.2,0.2c-0.5,0-1-0.1-1.6-0.1c-1.1,0-1.6,0.1-1.9,0.1c-0.2,0-0.4,0-0.4-0.2
		c0-0.4,1.2-0.2,1.2-1.2v-3.8c0-0.3,0.1-0.4-0.1-0.4h-6.3c-0.2,0-0.2,0.1-0.2,0.3V41c0,1.1,1.6,0.7,1.6,1.2c0,0.1-0.1,0.1-0.3,0.1
		c-0.2,0-1.5-0.1-2.4-0.1c-1.2,0-1.4,0.1-1.5,0.1c-0.1,0-0.2-0.1-0.2-0.2c0-0.5,1.3,0.1,1.3-1.5V32.6z"/>
	<path fill="#FFFFFF" d="M201.1,38.2c0,2.5,1.8,3.7,4.1,3.7c3.2,0,4-2,4-3.8v-5.1c0-1.6-1.6-0.9-1.6-1.5c0-0.1,0.1-0.2,0.2-0.2
		c0.7,0,1.3,0.1,2,0.1c0.3,0,0.6-0.1,0.9-0.1c0.1,0,0.2,0.1,0.2,0.2c0,0.4-1,0.1-1,1.5v4.9c0,0.8,0.2,4.7-4.8,4.7
		c-4.5,0-5.4-2.3-5.4-4.8v-5.3c0-0.9-1.4-0.6-1.4-1.1c0-0.1,0.3-0.2,0.4-0.2c0.4,0,0.9,0.1,1.3,0.1c0.5,0,1.1-0.1,1.6-0.1
		c0.1,0,0.5,0,0.5,0.2c0,0.4-1.1,0-1.1,1.1V38.2z"/>
	<path fill="#FFFFFF" d="M220.8,40.7c1.2,1.7,2.1,1.2,2.1,1.5c0,0.2-1,0.2-1.1,0.2c-1.3,0-1.9-0.8-2.6-1.7l-1.9-2.8
		c-0.6-0.9-0.4-0.8-2.3-0.8c-0.5,0-0.4,0.3-0.4,0.4v3.3c0,1.4,1.8,0.9,1.8,1.4c0,0.2-0.2,0.1-0.3,0.1c-0.2,0-0.5-0.1-2-0.1
		c-0.6,0-1.3,0.1-2,0.1c-0.1,0-0.2-0.1-0.2-0.2c0-0.4,1.3-0.2,1.3-1.4v-8c0-1.5-1.5-0.9-1.5-1.4c0-0.1,0.1-0.2,0.3-0.2
		c0.3,0,0.2,0.1,1.1,0.1c1,0,2-0.1,2.9-0.1c0.3,0,4.1-0.3,4.1,2.7c0,1.2-1,2.3-2.2,2.7L220.8,40.7z M214.5,36.3
		c0,0.3,1.1,0.2,1.9,0.2c0.7,0,2.4-0.3,2.4-2.2c0-1.9-1.6-2.6-3.3-2.6c-0.6,0-1,0-1,0.6V36.3z"/>
	<path fill="#FFFFFF" d="M229.5,31.1c3.2,0,4.1,1.2,4.6,1.2c0.1,0,0.2-0.2,0.4-0.2c0.2,0,0.2,0.3,0.2,1.3c0,0.8,0.2,1.4-0.1,1.4
		c-0.2,0-0.3-0.4-0.4-0.5c-1.1-1.7-2.3-2.7-4.5-2.7c-3.3,0-5,2.1-5,5c0,2.7,1.7,5.5,5,5.5c2.7,0,4.4-1.6,4.6-2.3
		c0-0.1,0.1-0.2,0.2-0.2c0.1,0,0.2,0.1,0.2,0.2l-0.4,1.6c0,0.1-1.2,1.2-5.1,1.2c-3.5,0-6-2.2-6-5.5
		C223.3,33.7,225.9,31.1,229.5,31.1z"/>
	<path fill="#FFFFFF" d="M237.2,32.6c0-1.2-1.5-0.8-1.5-1.2c0-0.1,0.1-0.2,0.3-0.2c0.6,0,1.3,0.1,1.9,0.1c0.5,0,1.1-0.1,1.6-0.1
		c0.3,0,0.3,0.1,0.3,0.2c0,0.3-1.2,0-1.2,1.2V36c0,0.2,0,0.3,0.3,0.3h6.3c0.2,0,0.1-0.4,0.1-0.5v-3.2c0-1.1-1.3-0.8-1.3-1.2
		c0-0.1,0-0.2,0.3-0.2c0.6,0,1.5,0.1,1.8,0.1c0.6,0,0.9-0.1,1.2-0.1c0.4,0,0.5,0.2,0.5,0.3c0,0.3-1.1,0-1.1,1.1v8.4
		c0,1.2,1.6,0.9,1.6,1.3c0,0-0.1,0.2-0.2,0.2c-0.5,0-1-0.1-1.6-0.1c-1.1,0-1.6,0.1-1.9,0.1c-0.2,0-0.4,0-0.4-0.2
		c0-0.4,1.2-0.2,1.2-1.2v-3.8c0-0.3,0.1-0.4-0.1-0.4h-6.3c-0.2,0-0.2,0.1-0.2,0.3V41c0,1.1,1.6,0.7,1.6,1.2c0,0.1-0.1,0.1-0.3,0.1
		c-0.2,0-1.5-0.1-2.4-0.1c-1.2,0-1.4,0.1-1.5,0.1c-0.1,0-0.2-0.1-0.2-0.2c0-0.5,1.3,0.1,1.3-1.5V32.6z"/>
	<path fill="#FFFFFF" d="M71.6,56.6c0.1,1.1,1,0.6,1,1c0,0.1-0.2,0.1-0.3,0.1c-0.2,0-0.7-0.1-1.2-0.1c-0.4,0-0.8,0.1-1.1,0.1
		c-0.1,0-0.1-0.1-0.1-0.1c0-0.4,0.8-0.1,0.8-1l-0.1-4.9c0-0.3-0.1-0.5-0.1-0.5c-0.1,0-0.2,0.1-0.3,0.4L67.3,57
		c-0.1,0.1-0.3,0.6-0.4,0.6c-0.1,0-0.2-0.3-0.3-0.4l-2.7-5.7c0-0.1-0.1-0.1-0.2-0.1c0,0-0.1,0.1-0.1,0.2l-0.2,4.5
		c-0.1,1.7,1.2,1.1,1.2,1.6c0,0.1-0.1,0.1-0.3,0.1c-0.2,0-0.7-0.1-1.1-0.1c-0.7,0-0.9,0.1-1.1,0.1c-0.1,0-0.1-0.1-0.1-0.2
		c0-0.4,0.8,0.1,0.9-1.2c0.2-2.1,0.3-3.4,0.3-4.8c0-3-1.2-2.3-1.2-2.7c0-0.1,0.1-0.1,0.2-0.1c0.2,0,0.5,0.1,0.7,0.1
		c0.2,0,0.5-0.1,0.7-0.1c0.2,0,0.2,0.2,0.3,0.4l3.1,6.5c0.1,0.3,0.2,0.4,0.3,0.4c0.1,0,0.2-0.3,0.4-0.7l3.1-6.1
		c0.1-0.1,0.2-0.4,0.3-0.4c0.1,0,0.5,0.1,0.6,0.1c0.3,0,0.4-0.1,0.6-0.1c0.1,0,0.1,0.1,0.1,0.2c0,0.4-1-0.1-1,1.4L71.6,56.6z"/>
	<path fill="#FFFFFF" d="M74.4,53.7c0-0.8-0.7-0.4-0.7-0.7c0-0.1,0.1-0.1,0.1-0.1c0.8-0.2,1.1-0.6,1.4-0.6c0.1,0,0.2,0.1,0.2,0.2V57
		c0,0.6,1,0.4,1,0.7c0,0.1-0.1,0.1-0.2,0.1c-0.3,0-0.7-0.1-1.2-0.1c-0.4,0-0.7,0.1-0.9,0.1c-0.1,0-0.2,0-0.2-0.1
		c0-0.3,0.6,0.2,0.6-1V53.7z M75.4,50.4c0,0.2-0.4,0.7-0.5,0.7c-0.2,0-0.5-0.5-0.5-0.7c0-0.1,0.4-0.7,0.5-0.7
		C75,49.7,75.4,50.2,75.4,50.4z"/>
	<path fill="#FFFFFF" d="M77.1,53.8c0-1,0.8-1.5,1.7-1.5c0.2,0,1.1,0.1,1.3,0.3c0.1,0.1,0.1,0.5,0.1,0.6c0,0.3,0.1,0.5-0.1,0.5
		c-0.1,0-0.2-1.1-1.4-1.1c-0.5,0-0.9,0.3-0.9,0.8c0,0.4,0.3,0.7,1.7,1.2c0.7,0.3,1.1,0.7,1.1,1.5c0,1-0.8,1.7-1.7,1.7
		c-0.9,0-1.1-0.4-1.4-0.4c-0.3,0-0.3,0-0.3-1c0-0.2,0-0.6,0.2-0.6c0.3,0,0.1,1.7,1.5,1.7c0.6,0,1.1-0.4,1.1-1c0-0.7-0.7-0.9-1.2-1.1
		C78,55.1,77.1,54.7,77.1,53.8z"/>
	<path fill="#FFFFFF" d="M81.4,53.8c0-1,0.8-1.5,1.7-1.5c0.2,0,1.1,0.1,1.3,0.3c0.1,0.1,0.1,0.5,0.1,0.6c0,0.3,0.1,0.5-0.1,0.5
		c-0.1,0-0.2-1.1-1.4-1.1c-0.5,0-0.9,0.3-0.9,0.8c0,0.4,0.3,0.7,1.7,1.2c0.7,0.3,1.1,0.7,1.1,1.5c0,1-0.8,1.7-1.7,1.7
		c-0.9,0-1.1-0.4-1.4-0.4c-0.3,0-0.3,0-0.3-1c0-0.2,0-0.6,0.2-0.6c0.3,0,0.1,1.7,1.5,1.7c0.6,0,1.1-0.4,1.1-1c0-0.7-0.7-0.9-1.2-1.1
		C82.3,55.1,81.4,54.7,81.4,53.8z"/>
	<path fill="#FFFFFF" d="M85.6,55.2c0-1.6,1.2-2.9,2.9-2.9c1,0,2.8,0.5,2.8,2.8c0,1.6-1.2,2.8-2.8,2.8
		C86.8,57.9,85.6,56.9,85.6,55.2z M90.3,55.3c0-1.3-0.6-2.7-2.1-2.7c-1.3,0-1.8,1.1-1.8,2.2c0,1.2,0.6,2.9,2.1,2.9
		C89.6,57.6,90.3,56.9,90.3,55.3z"/>
	<path fill="#FFFFFF" d="M96.1,53.2c0-0.5-0.7-0.2-0.7-0.5c0-0.1,0.2-0.1,0.2-0.1c0.4,0,0.6,0,0.7-0.1c0.1,0,0.3-0.1,0.5-0.1
		c0.1,0,0.2,0.1,0.2,0.3v4.4c0,0.3,0.8,0.2,0.8,0.4c0,0.1-0.3,0.1-0.5,0.1c-0.4,0-0.5,0-0.7,0.1c-0.1,0-0.2,0.1-0.4,0.1
		c-0.1,0-0.1-0.1-0.1-0.2V57h0c-0.4,0.6-1,0.9-1.7,0.9c-1,0-1.9-0.6-1.9-1.7v-3c0-0.5-0.7-0.2-0.7-0.5c0-0.1,0.2-0.1,0.2-0.1
		c0.4,0,0.6,0,0.7-0.1c0.1,0,0.3-0.1,0.5-0.1c0.1,0,0.2,0.1,0.2,0.3V56c0,1.3,1.1,1.4,1.2,1.4c0.7,0,1.4-0.5,1.4-0.9V53.2z"/>
	<path fill="#FFFFFF" d="M100.1,56.7c0,1.2,1.1,0.6,1.1,1c0,0.1-0.1,0.1-0.2,0.1c-0.2,0-0.5-0.1-1.2-0.1c-0.9,0-1.1,0.1-1.2,0.1
		c-0.1,0-0.1,0-0.1-0.1c0-0.3,0.7-0.2,0.7-0.7v-3.3c0-0.8-0.9-0.4-0.9-0.7c0-0.1,0.1-0.1,0.2-0.1c1-0.2,1.2-0.6,1.5-0.6
		c0.1,0,0.2,0.1,0.2,0.2v1h0c0.3-0.4,0.7-1.1,1.3-1.1c0.3,0,0.8,0.3,0.8,0.6c0,0.2-0.3,0.6-0.5,0.6c-0.2,0-0.4-0.3-0.9-0.3
		c-0.5,0-0.8,0.6-0.8,0.8V56.7z"/>
	<path fill="#FFFFFF" d="M103.7,53.7c0-0.8-0.7-0.4-0.7-0.7c0-0.1,0.1-0.1,0.1-0.1c0.8-0.2,1.1-0.6,1.4-0.6c0.1,0,0.2,0.1,0.2,0.2
		V57c0,0.6,1,0.4,1,0.7c0,0.1-0.1,0.1-0.2,0.1c-0.3,0-0.7-0.1-1.2-0.1c-0.4,0-0.7,0.1-0.9,0.1c-0.1,0-0.2,0-0.2-0.1
		c0-0.3,0.6,0.2,0.6-1V53.7z M104.7,50.4c0,0.2-0.4,0.7-0.5,0.7c-0.2,0-0.5-0.5-0.5-0.7c0-0.1,0.4-0.7,0.5-0.7
		C104.3,49.7,104.7,50.2,104.7,50.4z"/>
	<path fill="#FFFFFF" d="M109.6,55.6c-0.1-0.3,0-0.4,0.1-0.4c0.2,0,0.2,0.2,0.2,0.4c0.2,0.6,0.9,1.9,2.7,1.9c1.2,0,2.4-0.7,2.4-2
		c0-2.5-5.2-1.1-5.2-4.4c0-1.6,1.4-2.4,2.9-2.4c1.6,0,2,0.5,2.2,0.5c0.1,0,0.1-0.1,0.3-0.1c0.1,0,0.1,0,0.2,0.2l0.2,1.7
		c0,0.1,0,0.2-0.1,0.2c-0.1,0-0.2-0.3-0.3-0.4c-0.4-1.1-1.3-1.7-2.5-1.7c-1,0-2.1,0.5-2.1,1.7c0,2.4,5.2,1,5.2,4.5
		c0,1.1-0.8,2.7-3.7,2.7c-1,0-2.1-0.5-2.2-0.7L109.6,55.6z"/>
	<path fill="#FFFFFF" d="M118.7,60.3c0,0-0.2,0-0.4,0c-0.2,0-0.5,0-0.5-0.1c0-0.3,1.2-1.2,1.2-2.2c0-0.3-0.1-0.6-0.3-0.9l-1.7-4.1
		c-0.1-0.3-0.6-0.3-0.6-0.5c0-0.1,0.1-0.2,0.3-0.2c0.3,0,0.6,0.1,0.9,0.1c0.5,0,0.7-0.1,1-0.1c0.2,0,0.3,0,0.3,0.2
		c0,0.3-0.7,0-0.7,0.5c0,0.2,0.1,0.4,0.1,0.3l0,0l1.4,3.5l1-2.9c0.2-0.5,0.2-0.6,0.2-0.7c0-0.7-0.8-0.5-0.8-0.8
		c0-0.1,0.2-0.1,0.4-0.1c0.2,0,0.4,0.1,0.7,0.1c0.3,0,0.5-0.1,0.7-0.1c0.2,0,0.2,0.1,0.2,0.2c0,0.3-0.4,0-0.7,0.7L118.7,60.3z"/>
	<path fill="#FFFFFF" d="M124,56.8c0,0.9,1.1,0.5,1.1,0.9c0,0.2-0.1,0.2-0.3,0.2c-0.2,0-0.5-0.1-1.2-0.1c-0.7,0-0.9,0.1-1.1,0.1
		c-0.2,0-0.2,0-0.2-0.2c0-0.3,0.8,0,0.8-0.8v-3.2c0-0.8-1-0.4-1-0.7c0-0.1,0.1-0.1,0.1-0.1c1.1-0.2,1.3-0.6,1.6-0.6
		c0.1,0,0.2,0.1,0.2,0.2v0.8c0,0.2,0.6-0.9,1.9-0.9c1.7,0,2.1,1.4,2.1,2.4v2.1c0,0.9,1,0.5,1,0.9c0,0.2-0.1,0.2-0.2,0.2
		c-0.2,0-0.5-0.1-1.1-0.1c-0.5,0-0.8,0.1-0.9,0.1c-0.2,0-0.2,0-0.2-0.2c0-0.3,0.6,0,0.6-0.8v-2.4c0-0.6-0.5-1.6-1.5-1.6
		c-1.1,0-1.5,0.8-1.5,1V56.8z"/>
	<path fill="#FFFFFF" d="M129.5,55.2c0-1.6,1.2-2.9,2.9-2.9c1,0,2.8,0.5,2.8,2.8c0,1.6-1.2,2.8-2.8,2.8
		C130.7,57.9,129.5,56.9,129.5,55.2z M134.3,55.3c0-1.3-0.6-2.7-2.1-2.7c-1.3,0-1.8,1.1-1.8,2.2c0,1.2,0.6,2.9,2.1,2.9
		C133.6,57.6,134.3,56.9,134.3,55.3z"/>
	<path fill="#FFFFFF" d="M140.2,49.8c0-0.8-1-0.4-1-0.7c0-0.1,0.1-0.1,0.1-0.1c1-0.2,1.4-0.6,1.7-0.6c0.1,0,0.2,0.1,0.2,0.2v8.7
		c0,0.2,0.3,0.3,0.7,0.3c0.1,0,0.1,0,0.1,0.1c0,0.1-0.3,0.2-0.8,0.2c-0.3,0-0.7,0.1-0.8,0.1c-0.1,0-0.1-0.1-0.1-0.2V57h0
		c-0.4,0.5-1.1,0.9-1.9,0.9c-1.4,0-2.3-1.3-2.3-2.6c0-1.5,1.1-3,2.7-3c0.5,0,1.1,0.2,1.5,0.4V49.8z M140.2,54.1
		c0-0.9-0.8-1.5-1.7-1.5c-1.2,0-1.7,1.1-1.7,2.2c0,1.1,0.8,2.6,2,2.6c1.1,0,1.5-0.6,1.5-1.1V54.1z"/>
</g>
<path fill="#FFFFFF" d="M7.2,31.7h21.1c1,0,2.1-0.7,3-1.7c0.3-0.3,3.9-3.9,4.1-4.1c0.1-0.1,0.5-0.6,0.7-1.3c0-0.1,0-0.1-0.1,0
	c-0.6,1.5-2.3,1.6-2.8,1.6c-0.7,0-10.1,0-19.8,0l0,0c0,0-1.3-0.1-2.5,0.6c-1.1,0.7-1.7,1.7-1.7,1.7L7.2,31.7"/>
<path fill="#FFFFFF" d="M24.6,25.3h-2.1v-9.4c0-1.1,0.7-2.4,2.1-3.4V25.3z"/>
<path fill="#FFFFFF" d="M25.1,37.6c-0.1,0.2-0.3,0.5-0.4,0.9c-0.1,0.4-0.1,0.8-0.1,1.4c0,1.4,0,33.7,0,33.7L22.5,75l0-33.6
	C22.5,40.1,23.8,38.9,25.1,37.6C25.1,37.6,25.1,37.5,25.1,37.6z"/>
<path fill="#FFFFFF" d="M29.8,32.9c-0.1,0.2-0.2,0.5-0.3,0.9c-0.1,0.4-0.1,0.8-0.1,1.4c0,1.4,0,35,0,35l-3.8,2.7V38.4
	c0-1,0.7-2,1.7-3C27.5,35.1,29.2,33.5,29.8,32.9C29.8,32.8,29.9,32.8,29.8,32.9z"/>
<path fill="#FFFFFF" d="M24.1,37.1C24.2,37,24.2,37.1,24.1,37.1c-1.2,1.3-2.4,2.5-3.7,2.5H1.8l1.4-2.1c0,0,17.3,0,18.7,0
	c0.6,0,1,0,1.4-0.1C23.6,37.3,23.9,37.2,24.1,37.1z"/>
<path fill="#FFFFFF" d="M28.9,32.3C29,32.3,29,32.3,28.9,32.3c-0.5,0.6-2.2,2.2-2.5,2.5c-1,0.9-2,1.7-3,1.7H3.9l2.5-3.8
	c0,0,18.5,0,19.9,0c0.6,0,1.3,0,1.7-0.1C28.4,32.6,28.7,32.4,28.9,32.3z"/>
<path fill="#FFFFFF" d="M30.3,69.4l0-35.7c0-1,0.7-2.1,1.7-3.1c0.3-0.3,3.9-3.9,4.1-4.1c0.1-0.1,0.5-0.5,1.2-0.7c0,0,0.1,0,0,0.1
	c-1.4,0.6-1.6,2.2-1.6,2.7c0,0.7,0,10.1,0,19.8l0,14.6c0,0,0.1,1.3-0.6,2.5c-0.7,1.1-1.7,1.7-1.7,1.7l-3.1,2.1H30.3z"/>
<polygon fill="#FFFFFF" points="25.6,25.3 25.6,11.8 29.4,9.2 29.4,25.3 "/>
<path fill="#FFFFFF" d="M34.9,24.4c-0.6,0.7-1.8,0.8-1.8,0.8l-2.8,0V8.5l5-3.5l0,17.3C35.3,22.3,35.4,23.9,34.9,24.4z"/>
<path fill="#FFFFFF" d="M49,37.5c-1,1.4-2.1,2.1-3.2,2.1h-9v-2.1H49z"/>
<polygon fill="#FFFFFF" points="36.8,36.5 49.7,36.5 52.3,32.7 36.8,32.7 "/>
<path fill="#FFFFFF" d="M37.6,27.2c-0.8,0.6-0.8,1.8-0.8,1.8l0,2.8h16.4l3.5-5l-17,0C39.7,26.7,38.2,26.7,37.6,27.2z"/>
<g>
	<path fill="#FFFFFF" d="M17.6,70.2c1.3,0,2.3,1,2.3,2.3c0,1.3-1,2.4-2.3,2.4c-1.3,0-2.3-1-2.3-2.4C15.3,71.2,16.3,70.2,17.6,70.2
		L17.6,70.2z M17.6,70.6c-1,0-1.9,0.9-1.9,2c0,1.1,0.8,2,1.9,2c1,0,1.9-0.9,1.9-2C19.5,71.5,18.6,70.6,17.6,70.6L17.6,70.6z
		 M17.2,73.9h-0.4v-2.6c0.2,0,0.4-0.1,0.7-0.1c0.4,0,0.7,0.1,0.8,0.2c0.2,0.1,0.2,0.3,0.2,0.5c0,0.3-0.2,0.6-0.5,0.6v0
		c0.2,0,0.4,0.3,0.4,0.6c0.1,0.4,0.1,0.6,0.2,0.6h-0.4c-0.1-0.1-0.1-0.3-0.2-0.7c-0.1-0.3-0.2-0.5-0.6-0.5h-0.3V73.9z M17.2,72.5
		h0.3c0.3,0,0.6-0.1,0.6-0.4c0-0.2-0.2-0.5-0.6-0.5c-0.1,0-0.2,0-0.3,0V72.5z"/>
</g>
</svg>
