<?xml version="1.0" encoding="utf-8"?>
<!-- Generator: Adobe Illustrator 18.1.1, SVG Export Plug-In . SVG Version: 6.00 Build 0)  -->
<svg version="1.1" id="Layer_2" xmlns="http://www.w3.org/2000/svg" xmlns:xlink="http://www.w3.org/1999/xlink" x="0px" y="0px"
	 width="200px" height="200px" viewBox="0 0 200 200" enable-background="new 0 0 200 200" xml:space="preserve">
<circle fill-rule="evenodd" clip-rule="evenodd" fill="#D3B99F" cx="100" cy="108.5" r="74.5"/>
<g>
	<path fill="#FFFFFF" d="M139.8,119c4.2-2.9,11.2,2.2,13,4.4c1.8,2.2,8.1,4.3,12.8,0c4.7-4.3,1.4-11.2,0.6-16.4
		c-0.8-5.3-1.8-16.9-0.4-19.5c-2.7-1.3-8.7-11.3-11.2-16c-2.4-4.7-3.8-12.2-10.2-12.9c-6.3-0.7-10.3,4.7-10.4,7.5
		c-0.1,2.8-2.8,11-7.9,11.2c-0.7-0.1-1.1-0.1-1.5-0.3c0,0-0.5-0.3-0.9-0.7c-0.4-0.4-0.8-0.9-1.3-2.1c-1.5-4.9,5.5-10,8.2-11
		c2.6-1,6.6-6.4,3.9-12.2c-2.6-5.8-10.2-4.8-15.5-5.7c-5.2-0.9-16.6-3.5-18.6-5.7h0c-2,2.2-13.4,4.8-18.7,5.7
		C76.5,46,68.9,45,66.3,50.9c-2.6,5.8,1.3,11.2,3.9,12.2c2.6,1,9.6,6.1,8.2,11c-0.3,0.7-0.5,1-0.8,1.4c0,0-0.4,0.3-0.8,0.6
		c-0.4,0.3-1.1,0.7-2.7,0.7c-4.8,0.1-7.7-8.2-7.9-11c-0.2-2.8-4.1-8.2-10.4-7.5c-6.3,0.7-7.7,8.2-10.1,13c-2.4,4.7-8.4,14.7-11.1,16
		l0,0c1.5,2.6,0.5,14.2-0.3,19.5c-0.8,5.3-4.1,12.2,0.7,16.4c4.8,4.3,11.1,2.2,12.9,0c1.8-2.2,8.7-7.3,13-4.4c0.4,0.4,0.8,0.8,1,1.2
		c0.1,0.4,0.3,1.5,0.1,3.1c-1.7,4.8-10.4,4.7-13.1,4c-2.7-0.7-9.1,1.3-10.4,7.5c-1.4,6.3,5.4,9.9,9.1,13.7
		c3.7,3.8,11.3,12.7,11.6,15.6l0,0c2.9-0.5,13.6,4.1,18.4,6.5c4.7,2.4,10.2,7.7,15.8,4.6c5.6-3.1,5.6-9.8,4.1-12.2
		c-1.5-2.4-4.1-10.6-0.1-13.7c0.7-0.4,1.3-0.6,1.8-0.7c0,0,0.6-0.1,1.1,0c0,0,1,0,2.2,1c4.1,3.1,1.4,11.3-0.1,13.7
		c-1.5,2.4-1.5,9,4,12.2c5.6,3.2,11.1-2.1,15.8-4.5c4.7-2.4,15.5-6.9,18.4-6.4c0.4-3,8-11.8,11.8-15.6c3.7-3.8,10.5-7.4,9.1-13.7
		c-1.3-6.3-7.7-8.3-10.4-7.6c-2.7,0.7-11.4,0.7-13.1-4.1c-0.2-0.7-0.2-1.3-0.2-1.8l0.1,0C137.9,121.7,138.3,120.4,139.8,119z
		 M59.7,97.7c-1.8-0.7-3.6-1.6-5.4-2.4c-1.8-0.8-3.7-1.6-5.5-2.3c-1.7-0.7-3.4-1.3-4.8-1.8c-1.4-0.5-2.6-0.9-3.4-1.2
		c-0.8-0.3-1.3-0.4-1.3-0.4l0.2-0.5c0,0,0.5,0.2,1.3,0.4c0.8,0.3,2,0.6,3.5,1c1.5,0.4,3.2,0.8,5,1.2c1.8,0.4,3.8,0.8,5.8,1.2
		c2,0.4,4,0.7,5.8,1.1c0.9,0.2,1.8,0.4,2.6,0.6c0.8,0.2,1.6,0.4,2.4,0.6c0.7,0.2,1.4,0.4,2,0.6c0.6,0.2,1,0.5,1.4,0.8
		c0.7,0.7,1,1.6,1,1.6l-0.4,1.1c0,0-0.7,0.6-1.7,0.8c-0.5,0.1-1,0.1-1.6-0.1c-0.6-0.2-1.2-0.4-2-0.6c-0.7-0.2-1.5-0.5-2.3-0.8
		C61.4,98.4,60.5,98.1,59.7,97.7z M82.4,136.5c-0.1,0.5-0.2,1-0.6,1.5c-0.4,0.5-0.8,1-1.2,1.7c-0.4,0.6-1,1.2-1.5,1.9
		c-0.5,0.7-1.1,1.4-1.7,2.1c-1.2,1.4-2.6,2.9-3.9,4.4c-1.4,1.5-2.7,3-3.9,4.5c-1.2,1.5-2.3,2.8-3.2,4c-0.9,1.2-1.7,2.2-2.2,2.9
		c-0.5,0.7-0.8,1.1-0.8,1.1l-0.4-0.3c0,0,0.3-0.4,0.8-1.1c0.5-0.7,1.2-1.8,2-3c0.8-1.3,1.8-2.7,2.7-4.4c1-1.6,2-3.4,2.9-5.1
		c1-1.8,1.9-3.5,2.9-5.2c0.5-0.8,0.9-1.6,1.4-2.3c0.5-0.7,0.9-1.4,1.3-2c0.4-0.6,0.8-1.2,1.2-1.7c0.3-0.5,0.8-0.8,1.2-1.1
		c0.9-0.4,1.8-0.4,1.8-0.4s0.4,0.1,0.6,0.2c0.3,0.2,0.4,0.5,0.4,0.5S82.6,135.5,82.4,136.5z M102.2,75.4c-0.5,0.9-1.2,1.4-1.2,1.4
		h-1.2c0,0-0.8-0.5-1.2-1.4c-0.2-0.4-0.4-1-0.4-1.6c0-0.6,0-1.3,0-2c0-0.7,0.1-1.6,0.1-2.4c0-0.9,0.1-1.8,0.2-2.7
		c0.2-1.9,0.4-3.9,0.7-5.9c0.2-2,0.4-4,0.6-5.9c0.1-1.9,0.2-3.6,0.3-5.1c0-1.5,0.1-2.8,0.1-3.6c0-0.9,0-1.4,0-1.4h0.5
		c0,0,0,0.5,0,1.4c0,0.9,0,2.1,0.1,3.6c0.1,1.5,0.2,3.3,0.3,5.1c0.1,1.9,0.3,3.9,0.6,5.9c0.2,2,0.5,4,0.6,5.9
		c0.1,0.9,0.2,1.8,0.2,2.7c0,0.9,0.1,1.7,0.1,2.4c0,0.8,0,1.4,0,2.1C102.6,74.4,102.4,74.9,102.2,75.4z M137.4,160.3
		c0,0-0.3-0.4-0.8-1.1c-0.5-0.7-1.3-1.7-2.2-2.9c-0.9-1.2-2-2.6-3.3-4c-1.2-1.4-2.5-3-3.9-4.4c-1.4-1.5-2.7-3-4-4.4
		c-0.6-0.7-1.2-1.4-1.8-2.1c-0.5-0.7-1.1-1.3-1.5-1.9c-0.5-0.6-0.9-1.1-1.2-1.6c-0.4-0.5-0.6-1-0.6-1.5c-0.1-1,0.2-1.8,0.2-1.8
		s0.1-0.3,0.4-0.4c0.2-0.2,0.6-0.3,0.6-0.3s0.9-0.1,1.8,0.4c0.4,0.2,0.9,0.6,1.2,1.1c0.4,0.5,0.8,1.1,1.2,1.7c0.4,0.6,0.9,1.3,1.4,2
		c0.5,0.7,0.9,1.5,1.4,2.3c1,1.6,2,3.4,2.9,5.1c1,1.8,2,3.5,3,5.1c1,1.6,2,3.1,2.8,4.3c0.8,1.2,1.5,2.3,2.1,3
		c0.5,0.7,0.8,1.1,0.8,1.1L137.4,160.3z M136,99.8c-0.7,0.2-1.4,0.4-1.9,0.6c-0.6,0.2-1.1,0.2-1.6,0.1c-1-0.2-1.7-0.8-1.7-0.8
		l-0.4-1.1c0,0,0.2-0.9,1-1.6c0.4-0.4,0.8-0.7,1.4-0.8c0.6-0.2,1.2-0.4,2-0.6c0.7-0.2,1.5-0.4,2.3-0.6c0.8-0.2,1.7-0.4,2.6-0.6
		c1.8-0.4,3.8-0.8,5.8-1.1c2-0.4,4-0.8,5.8-1.2c1.8-0.4,3.5-0.9,5-1.2c1.5-0.4,2.7-0.7,3.5-1c0.8-0.3,1.3-0.4,1.3-0.4l0.2,0.5
		c0,0-0.5,0.1-1.3,0.4c-0.8,0.3-2,0.7-3.4,1.2c-1.4,0.5-3.1,1.1-4.8,1.8c-1.8,0.7-3.6,1.5-5.5,2.3c-1.8,0.8-3.7,1.6-5.4,2.4
		c-0.9,0.4-1.7,0.7-2.5,1C137.4,99.3,136.7,99.6,136,99.8z"/>
</g>
<path fill="#C42031" d="M131.4,98.7c-0.1-1.7-0.3-3.2-0.6-4.2c-0.6-2.1-1.4-4.2-2.4-6.1c-1-1.9-2.1-3.7-3.5-5.2
	c-1.4-1.4-3.1-2.7-5-3.6c-1.9-0.8-3.9-1.3-5.7-1.2c-1,0-2.3,0.1-3.7,0.4c-1.4,0.3-2.9,0.7-4.3,1.2c-1.4,0.5-2.8,1.1-3.9,1.8
	c-1,0.6-1.9,1.3-2.4,2c-0.5-0.7-1.4-1.4-2.4-2c-1.1-0.7-2.5-1.3-3.9-1.8c-1.4-0.5-2.9-1-4.3-1.2c-1.4-0.3-2.7-0.4-3.7-0.4
	c-1.9,0-3.8,0.4-5.7,1.2c-1.9,0.8-3.6,2.1-5,3.6c-1.3,1.5-2.5,3.3-3.5,5.2c-1,1.9-1.8,4-2.4,6.1c-0.3,1-0.5,2.5-0.6,4.2
	c-0.1,1.7-0.1,4,0.2,5.9c0.4,2.4,0.8,5,1.6,7.4c0.9,2.7,2,5.2,3.7,8.2c1.1,2.2,3.2,4.9,5.8,7.6c2.5,2.8,5.5,5.6,8.4,8
	c2.9,2.4,5.7,4.5,7.9,6c2,1.4,3.5,2.3,4,2.5v0h0c0,0,0,0,0,0v0c0.6-0.2,2-1.1,4-2.5c2.2-1.5,5-3.6,7.9-6c2.9-2.4,5.9-5.2,8.4-8
	c2.5-2.8,4.6-5.5,5.8-7.6c1.7-3.1,2.8-5.6,3.7-8.2c0.8-2.4,1.3-5.1,1.6-7.4C131.5,102.7,131.5,100.4,131.4,98.7z"/>
<path fill-rule="evenodd" clip-rule="evenodd" fill="#FFFFFF" d="M109.6,116c0.2,0,0.3,0.2,0.5,0.2c0,0.1,0,0.2,0,0.3
	c-0.3,0.1-0.7,0.1-1,0.2c-0.3,0.1-0.9,0.1-1,0.3c-0.2,0.9-0.4,1.8-0.3,2.6c0.1,0.5,0.1,1.1,0.1,1.6c-0.1,1.2-0.2,2.3-0.3,3.5
	c0,0.3-0.1,0.7,0,1c0.2,0.6,0,0.9-0.5,1.3c-0.1,0.1-0.3,0.3-0.3,0.5c-0.2,1-0.3,2-0.6,3c-0.2,0.9-0.8,1.7-1,2.6
	c-0.4,1.7-0.6,3.4-0.8,5.1c0,0.2-0.1,0.3-0.1,0.5c-0.1,0.4-0.2,0.8-0.3,1.2c0.1,0,0.1,0.1,0.2,0.1c0.3-0.2,0.6-0.4,1.1-0.8
	c0.1,0.6,0.2,0.9,0.2,1.3c0,0.4-0.1,0.8-0.1,1.2c0,0.6-0.1,1.1-0.9,1.2c-0.3,0-0.5,0.1-0.8,0.1c-0.7,0.1-1.3,0.2-1.2,1.2
	c-0.3-0.2-0.6-0.4-0.7-0.7c-0.2-0.7-0.3-1.3-0.4-2c-0.2-2.1-0.5-4.2-0.7-6.3c-0.1-1.3,0-2.6,0-3.9c0-0.3,0-0.6-0.1-0.9
	c-0.2-1.6-0.5-3.1-0.6-4.7c-0.1-1.5-0.1-3.1,0-4.6c0-0.5,0.2-1,0.4-1.4c0.5-0.9,1-1.7,1.5-2.6c0.3-0.4,0.6-0.7,0.9-1.1
	c0.2-0.2,0.4-0.2,0.4-0.3c0-0.1-0.4-0.1-0.7,0c-1.8,0.2-6.5,1.4-7.8,1.4c-0.3,0.7,0.6,0.6,0.7,0.7c0.7,0.6,0.8,1.6,0,2.2
	c-0.6,0.4-0.6,1-0.5,1.5c0.1,1.2,0.3,2.4,0.4,3.7c0.1,0.8,0,1.7,0.2,2.5c0.2,0.7,0.1,1.6,1,1.8c0.2,0.7,0.4,1.3,0.5,1.9
	c0.1,0.6,0,1.1,0.1,1.7c0,0.7,0.2,1.4,0.1,2.1c-0.2,1.3-0.6,2.6-0.5,4c0.1,0.9-0.4,1.4-1.1,1.8c-0.3,0.2-0.8,0.7-0.7,1
	c0.1,0.8-0.2,1.1-0.7,1.4c-0.1,0.1-0.2,0.4-0.2,0.6c0,0.6,0.2,1.2,0.1,1.8c-0.1,0.8,0.7,2.5,0.7,2.5c-0.1,0.4-0.2,0.8-0.2,1.2
	c0,2.3,0.1,4.6-0.1,6.8c-0.1,0.9,0.1,1.7,0.3,2.5c0.2,1.3,0.5,2.6,0.7,3.9c0.1,1.3-0.2,2.7,0.2,3.9c0.4,1.3,0.3,2.7,0.6,4
	c0.4,1.3,0.1,2.7,0.5,4.1c0.2,0.5,0.2,1.1,0.3,1.7c0.1,0.2,0.4,0.5,0.6,0.8c0.4,0.7,0.7,1.5,1,2.3c0.1,0.3,0.3,0.5,0.4,0.7
	c0.4,1.5,0.7,3,1.1,4.5c0.4,1.3,0.7,2.6,1.7,3.7c0.3,0.3,0.3,0.8,0.4,1.2c0.1,0.7,0.2,1.3,0.2,2c0,0.5,0,1-0.1,1.6
	c-0.1,0.5-0.6,0.7-0.9,0.6c-0.3-0.1-0.6-0.5-0.7-0.8c-0.1-0.6,0-1.3,0-1.9c0-0.4-0.2-0.9-0.3-1.3c-0.1,0-0.2,0-0.3,0.1
	c0,0.3-0.1,0.6,0,0.9c0.2,0.9,0.2,1.8-0.3,2.6c-0.8-0.1-1.2-0.5-1.1-1.4c0-0.3-0.2-0.7-0.3-1.1c-0.1,0-0.1,0-0.2,0
	c-0.2,0.3-0.4,0.7-0.6,1c-0.2-0.7-0.7-1.1-1.3-1.4c-0.2-0.1-0.4-0.5-0.5-0.8c-0.4-1.2-0.5-5.1-0.5-5.3c0-0.3,0-0.7,0-1
	c0-0.7,0-1.4,0-2c0-0.7,0.2-1.4-0.6-1.9c-0.2-0.1-1.7-12.4-1.7-13c0-0.2,0-0.4-0.1-0.6c-0.2-1-0.6-2-0.6-3c0-1.5-0.2-3-0.6-4.4
	c0-0.2-0.1-0.4-0.2-0.5c-0.8-1.1-0.9-2.4-1-3.7c-0.2-2.2,0.1-4,0.8-6.1c0.4-1.2,0.5-2.4,0.6-3.7c0.1-1.6-0.1-3.1-0.1-4.7
	c0-0.5,0.6-2.1,0.5-2.3c-0.1,0-0.9-4.9-1-4.9c-0.2-0.2-0.4-0.5-0.5-0.7c-0.2-0.4-1.1-1.5-1.2-1.9v0.3l-1.1-3.1l-1.1-4.2
	c0,0-1.9-13.3-1.9-14.5c0-1.2,0.8-4.8,1-5.4c0.2-0.6,0.3-0.5,1.1-2.5c0.8-2,1.6-10.6,1.6-10.6l-2.1-8.8L86,71.5L81,63.2l-6.9-1.9
	l-6.4-3.3l-10.7-7.2l-2.6-1.5l-1.2-1.2L53,47.7c-0.4-0.4-0.5-0.5-1.5-1.6c-1.4-1.2-2.7-2.5-4.1-3.7c-0.2-0.2-0.6-0.3-0.9-0.3
	c-0.6-0.1-1.2,0-1.7,0c-0.5-0.1-1-0.4-1.6-0.4c-1.1,0-1.8-0.6-2.2-1.5c-0.3-0.7-1.2-2.7-0.9-2.7c0.2,0,0.6-0.6,0.5-0.7
	c-0.1-0.1-0.3-0.2-0.4-0.3c-0.1-0.2-0.4-0.5-0.3-0.7c0.1-0.5,0.4-0.4,0.7-0.2c0.7,0.5,1.1,0.3,1.2-0.4c0-0.1,0.4-0.5,0.3-0.6
	c-0.3-0.4-0.8-0.9-0.6-1.7c0,0,0-0.1,0.1-0.2c0.4-0.1,0.7,0.1,1,0.5c0.4,0.5,0.7,1.1,1.2,1.5c0.4,0.3,1,0.3,1.4,0.6
	c0.2,0.1,0.5,0.5,0.6,0.7c0.1,0.5,1.2,1.8,1.5,2c0.4,0.8,0.1,1,0.2,1.5c0.1-0.1,0.9,0.1,1.5,0.5c0.9,0.6,3.7,1.8,4,1.9
	c0.5,0.3,5.9,2.7,10.5,5.4l5.2,2.7c1.2,1,0.2,0.9,1.9,0.9c0.3,0,1.3,0.9,1.7,1c1.5,0.4,3.5,1.1,5,2.1c1.1,0.7,2.3,1.3,3.5,1.9
	c0.1,0,0.1,0,0.2,0c1.4,0,2.9-0.1,4.3,0.1c1.5,0.2,3.2,0.2,4.1,1.9c0.1,0.1,0.2,0.1,0.3,0.2c0.5,0.4,1,0.9,1.6,1.3
	c0.2-0.1,0.7-0.2,1.2-0.4c0.2-0.5,0-0.9-0.6-1.2c-0.1,0-0.2-0.1-0.2-0.1c-0.7-0.8-1.5-1.3-2.1-2.3c0.1-0.1,0.4,0,0.6-0.2
	c0.3,0.3,1.1,1.2,1.8,0.6c-0.2-0.4-0.2-0.9-0.6-1.1c-0.3-0.2-0.9,0-1.4,0c-0.3,0-0.7-0.1-1-0.2c-0.2-0.1-0.4-0.4-0.4-0.5
	c-0.1-0.6,0-1.1,0-1.7h-2.2c0.4-0.7,0.9-0.8,1.8-0.6c0.4,0.1,0.9,0,1.4-0.1c-0.1-0.3-0.2-0.4-0.2-0.5c-0.5-0.9-0.6-1.1-0.4-0.9
	c0.6-0.1,1,0.1,1.1,0.8c0,0.1,0.3,0.2,0.3,0.2c0.1-0.5,0.1-0.9,0.2-1.4c0,0,0.2-0.1,0.3-0.1c0.4,0.1,0.4,0.1,0.6-0.1
	c1.2-1.1,1,0,0.4,0.4c-0.4,0.3-0.9,0.4-1,1.1c1.4,0.1,2.8,0.3,4.3,0.4c-0.1,0.4-0.3,0.7-0.4,1.1c-0.3-0.2-0.5-0.4-0.9-0.7
	C93.5,52,93,52.3,92.5,53c-0.6,0.9-0.4,1.5,0.7,1.8c0.4,0.1,1.7,0.4,1.9,0.4c1.2-0.2-0.6,1.5-0.7,1.9c0.3,0.7,0.4,1.5-0.7,2.2
	c0,0.6,0.3,1.2,1,1.3c0.6,0.1,1.2,0.2,1.8,0.4c0,1.4,8.3,8.2,8.4,8.4c0.4,0.7,0.4,1.3-0.3,2c-0.2,0.3-0.5,0.6-0.6,0.9
	c-0.4,1.1-1.3,5.6-1.1,5.7c-0.1,0.1-0.7,1.4-0.7,1.5c-0.3,1.1-0.8,2.2-2,2.7c0.1-1.7-0.1-7.5-0.3-8.7c-0.1-0.7-0.2-1.3-0.2-1.9
	c-0.1,0-0.1,0-0.2,0c-0.2,0.3-0.1,0.3-0.1,0.9c0.1,0.9,0.1,1.3,0.1,1.9c-0.1,0.7,0.1,4.2,0,4.6c-0.4,0.9-0.8,1.8-1.3,2.6
	c-0.3,0.5-0.7,0.9-1,1.4c-0.1,0.2,0.1,0.7,0.1,0.7c0.7,0,0.9,0.4,0.9,1c0,0.5-0.2,1-0.4,1.4c-0.2,0.4-0.2,2.2,0.2,2.6
	c0.4,0.4,0,9.9-0.2,10.9c-0.1,0.6,0.1,1.3-0.1,1.5c-0.4,0.3-1,0.7-0.9,0.9c0.2,0.6-0.1,0.7-0.5,1c0.3,0.1,0.6,0.2,0.9,0.1
	c1.1-0.4,2.3-0.8,3.4-1.3c0.6-0.3,1.1-0.6,1.7-0.6c0.6,0,0.6-0.2,1.2-0.3c-0.3-0.1,0.1,0.1-0.1,0c0-0.1,0-0.1,0-0.2
	c0.2,0,0.4,0,0.7,0c0.3,0.1,0.6,0.2,0.9,0.2c0.4-0.1,0.7-0.3,1.1-0.4c0.2-0.1,0.5,0.1,1,0.2c-1.3,0.5-2.3,0.9-3.4,1.2
	c-0.1,0-0.2,0.2-0.3,0.3c0.1,0,0.3,0.1,0.4,0.1c1.1-0.3,2.2-0.6,3.3-0.9c0.5-0.1,1-0.1,1.5-0.2c0,0.1,0.1,0.2,0.1,0.3
	c-0.3,0.2-0.6,0.5-0.9,0.6c-1.3,0.5-2.6,0.9-3.9,1.5c-0.7,0.3-1.3,0.7-2.1,0.7c-0.4,0.1-0.8,0.3-1.3,0.5c0,0.1,0,0.1,0.1,0.2
	c0.7,0,1.5-0.1,2.2-0.1c0.8-0.1,1.7-0.1,2.5-0.2c0.2,0,0.5,0.1,0.6,0.3c0.1,0.3,0.1,0.6,0.2,0.9c-1.4,0.5-3-0.5-4.5,0.4
	c1.8,0.6,3.8-0.5,5.8,0.4c-0.7,0.1-1.3,0.2-1.9,0.3c0.4,0.2,0.9,0.2,1.4,0.3c0.3,0,0.6,0.1,0.9,0.2c0.1,0.1,0.2,0.3,0.3,0.5
	c-0.1,0.1-0.3,0.2-0.5,0.3c-0.2,0-0.5-0.1-0.7,0c-0.7,0.2-1.4,0.5-2,0.7c0,0.1,0,0.1,0,0.2c0.3,0.1,0.6,0.1,0.9,0.2
	c0.8,0.1,1.6,0.2,2.3,0.3c0.1,0,0.3,0.2,0.4,0.2c-0.1,0.1-0.2,0.3-0.3,0.3c-0.6,0.1-1.1,0.2-1.6,0.2c-1,0-2-0.1-3.1-0.1
	c-0.6,0-1.1-0.1-1.7-0.1c-0.4,0-0.7,0-1.1,0c-0.5,0-1.1-0.1-1.7-0.1c0.2,0.8,0.6,1,1.1,1.3c1.5,0.9,3.2,1.2,4.8,0.6
	c0.9-0.3,1.6-0.3,2.4-0.1c0.5,0.1,1,0.3,1.5,0.6c0.2,0.1,0.2,0.5,0.3,0.8c-0.2,0-0.5,0.1-0.7,0.1c-0.1,0-0.2,0-0.3,0.1
	c0.1,0.2,0.3,0.2,0.4,0.4c0.1,0.2,0.4,0.6,0.3,0.7C108.5,115.3,108.8,115.9,109.6,116z"/>
<path fill-rule="evenodd" clip-rule="evenodd" fill="#FFFFFF" d="M165.3,37c-0.1,0.1-0.1,0.4-0.1,0.4c-0.4,0.6-0.6,1.3-0.5,1.6
	c0.1,0.5,0,1.1-0.4,1.4c-0.3,0.2-0.4,0.8-0.3,1.3c0,0.3-0.7,0.9-0.9,0.9c-0.3,0.1-0.6-0.1-1,0.1c-0.7,0.3-1.2,0.3-1.9,0.3
	c-0.6,0-2.8,0.4-3.6,0.3c-0.9-0.2-1.7,0.2-2.5,0.3c-1.1,0.2-1.7,1.1-2.5,1.6c-2.6,1.8-10.2,6.9-10.9,7.6c-0.4,0.4-2.6,1.3-3.1,1.7
	c-0.7,0.5-1.3,1-2,1.5c-1.5,0.9-3.1,1.3-4.8,1.4c-0.2,0-1.4,0.8-1.8,1c-0.5,0.3-1,0.4-1.5,0.7c-1,0.6-2.1,0.6-3.2,0.7
	c-0.1,0-0.3-0.2-0.6-0.3c0.5-0.3,1-0.5,1.3-0.7c0.4-0.3,0.7-0.7,1.1-1c0.3-0.3,0.3-0.5,0-0.5c-1.5,0.1-2.8,0.9-4.1,1.5
	c-0.5,0.2-0.9,0.4-1.3,0c-0.4-0.4-0.7-0.9-1.1-1.3c-0.5-0.6-0.4-1.4,0.3-1.8c1.2-0.7,4.3-2.2,4.5-2.2c1.7-0.2,3.4-0.4,5-0.6
	c0.5-0.1,1-0.3,1.3-0.6c1-1,2-1.8,3.4-2.2c0.4-0.1,4.4-2,4.4-2.1c0,0,11.4-6.1,12-7.1c0.6-0.9,1.4-1.5,1.8-2.6
	c0.1-0.2,0.5-0.4,0.9-0.9c0.1-0.1,0.3-0.2,0.5-0.3c0.7-0.5,1.5-0.9,1.7-1.8c0.3-1.1,1.2-1.7,1.6-0.3c0,0.8,0.2,1.5-0.4,2.3
	c-0.3,0.4,1.3-0.6,2.1-0.9c0.7-0.3,1.7-0.2,2.4-0.4c3.6-0.7,3.7-0.8,4.3,0.3C165.4,36.2,165.3,36.7,165.3,37z"/>
<path fill-rule="evenodd" clip-rule="evenodd" fill="#FFFFFF" d="M123,95.8"/>
<path fill-rule="evenodd" clip-rule="evenodd" d="M109.6,95.1C109.6,95.1,109.6,95.1,109.6,95.1C109.6,95.1,109.6,95.1,109.6,95.1z"
	/>
<g>
	<g>
		<path fill-rule="evenodd" clip-rule="evenodd" fill="#5E4428" d="M173.3,28.7c-0.4,0-57.8,0-64,0c0,0,0-16,0-21.6V0L89.9,0l0,28.7
			c0,0-55.1,0-61.9,0l0,19.3l23.8,0h1.7L53,47.7c-0.4-0.4-0.5-0.5-1.5-1.6c-1.4-1.2-2.7-2.5-4.1-3.7c-0.2-0.2-0.6-0.3-0.9-0.3
			c-0.6-0.1-1.2,0-1.7,0c-0.5-0.1-1-0.4-1.6-0.4c-1.1,0-1.8-0.6-2.2-1.5c-0.3-0.7-1.2-2.7-0.9-2.7c0.2,0,0.6-0.6,0.5-0.7
			c-0.1-0.1-0.3-0.2-0.4-0.3c-0.1-0.2-0.4-0.5-0.3-0.7c0.1-0.5,0.4-0.4,0.7-0.2c0.7,0.5,1.1,0.3,1.2-0.4c0-0.1,0.4-0.5,0.3-0.6
			c-0.3-0.4-0.8-0.9-0.6-1.7c0,0,0-0.1,0.1-0.2c0.4-0.1,0.7,0.1,1,0.5c0.4,0.5,0.7,1.1,1.2,1.5c0.4,0.3,1,0.3,1.4,0.6
			c0.2,0.1,0.5,0.5,0.6,0.7c0.1,0.5,1.2,1.8,1.5,2c0.4,0.8,0.1,1,0.2,1.5c0.1-0.1,0.9,0.1,1.5,0.5c0.9,0.6,3.7,1.8,4,1.9
			c0.5,0.3,5.9,2.7,10.5,5.4l5.2,2.7c1.2,1,0.8,1.8,2.6,1.8c0.3,0,0.7,0,1,0.1c1.5,0.4,3.5,1.1,5,2.1c1.1,0.7,2.3,1.3,3.5,1.9
			c0.1,0,0.1,0,0.2,0c1.4,0,2.9-0.1,4.3,0.1c1.5,0.2,3.2,0.2,4.1,1.9c0.1,0.1,0.2,0.1,0.3,0.2c0.5,0.4,1,0.9,1.6,1.3
			c0.2-0.1,0.7-0.2,1.2-0.4c0.2-0.5,0-0.9-0.6-1.2c-0.1,0-0.2-0.1-0.2-0.1c-0.7-0.8-1.5-1.3-2.1-2.3c0.1-0.1,0.4,0,0.6-0.2
			c0.3,0.3,1.1,1.2,1.8,0.6c-0.2-0.4-0.2-1.1-0.6-1.3c-0.3-0.2-0.9,0.2-1.4,0.2c-0.3,0-0.7-0.1-1-0.2c-0.2-0.1-0.4-0.4-0.4-0.5
			c-0.1-0.6,0-1.1,0-1.7h-2.2c0.4-0.7,0.9-0.8,1.8-0.6c0.4,0.1,0.9,0,1.4-0.1c-0.1-0.3-0.2-0.4-0.2-0.5c-0.5-0.9-0.6-1.1-0.4-0.9
			c0.6-0.1,1,0.1,1.1,0.8c0,0.1,0.3,0.2,0.3,0.2c0.1-0.5,0.1-0.9,0.2-1.4c0,0,0.2-0.1,0.3-0.1c0.4,0.1,0.4,0.1,0.6-0.1
			c1.2-1.1,1,0,0.4,0.4c-0.4,0.3-0.9,0.4-1,1.1c1.4,0.1,2.8,0.3,4.3,0.4c-0.1,0.4-0.3,0.7-0.4,1.1c-0.3-0.2-0.3-0.2-0.7-0.5
			c-0.4,0-0.7,0.2-1.6,0.9c-0.2,0.2-0.4,0.2-0.5,0.4c-0.2,0.4-0.1,0.6,0.2,0.8c0.2,0.1,0.6,0.5,0.9,0.6c0.4,0.1,0.9,0.3,1.1,0.4
			c0.3,0.1-0.7,1-0.8,1.4c0.3,0.7,1.3,1.8,0.1,2.5c0,0.6,0.3,1.2,1,1.3c0.6,0.1,1.2,0.2,1.8,0.4c0,1.4,8.3,8.2,8.4,8.4
			c0.4,0.7,0.4,1.3-0.3,2c-0.2,0.3-0.5,0.6-0.6,0.9c-0.4,1.1-1.3,5.6-1.1,5.7c-0.1,0.1-0.7,1.4-0.7,1.5c-0.3,1.1-0.8,2.2-2,2.7
			c0.1-1.7-0.1-7.5-0.3-8.7c-0.1-0.7-0.2-1.3-0.2-1.9c-0.1,0-0.1,0-0.2,0c-0.2,0.3-0.1,0.3-0.1,0.9c0.1,0.9,0.1,1.3,0.1,1.9
			c-0.1,0.7,0.1,4.2,0,4.6c-0.4,0.9-0.8,1.8-1.3,2.6c-0.3,0.5-0.7,0.9-1,1.4c-0.1,0.2,0.1,0.7,0.1,0.7c0.7,0,0.9,0.4,0.9,1
			c0,0.5-0.2,1-0.4,1.4c-0.2,0.4-0.2,2.2,0.2,2.6c0.4,0.4,0,9.9-0.2,10.9c-0.1,0.6,0.1,1.3-0.1,1.5c-0.4,0.3-1,0.7-0.9,0.9
			c0.2,0.6-0.1,0.7-0.5,1c0.3,0.1,0.6,0.2,0.9,0.1c1.1-0.4,2.3-0.8,3.4-1.3c0.6-0.3,1.1-0.4,1.7-0.4c0.6,0,2.3-0.3,2.6-0.4
			c0.4-0.1,0.7-0.3,1.1-0.4c0.2-0.1,0.5,0.1,1,0.2c-1.3,0.5-2.3,0.9-3.4,1.2c-0.1,0-0.2,0.2-0.3,0.3c0.1,0,0.3,0.1,0.4,0.1
			c1.1-0.3,2.2-0.6,3.3-0.9c0.5-0.1,1-0.1,1.5-0.2c0,0.1,0.1,0.2,0.1,0.3c-0.3,0.2-0.6,0.5-0.9,0.6c-1.3,0.5-2.6,0.9-3.9,1.5
			c-0.7,0.3-1.3,0.7-2.1,0.7c-0.4,0.1-0.8,0.3-1.3,0.5c0,0.1,0,0.1,0.1,0.2c0.7,0,1.5-0.1,2.2-0.1c0.8-0.1,1.7-0.1,2.5-0.2
			c0.2,0,0.5,0.1,0.6,0.3c0.1,0.3,0.1,0.6,0.2,0.9c-1.4,0.5-3-0.5-4.5,0.4c1.8,0.6,3.8-0.5,5.8,0.4c-0.7,0.1-1.3,0.2-1.9,0.3
			c0.4,0.2,0.9,0.2,1.4,0.3c0.3,0,0.6,0.1,0.9,0.2c0.1,0.1,0.2,0.3,0.3,0.5c-0.1,0.1-0.3,0.2-0.5,0.3c-0.2,0-0.5-0.1-0.7,0
			c-0.7,0.2-1.4,0.5-2,0.7c0,0.1,0,0.1,0,0.2c0.3,0.1,0.6,0.1,0.9,0.2c0.8,0.1,1.6,0.2,2.3,0.3c0.1,0,0.3,0.2,0.4,0.2
			c-0.1,0.1-0.2,0.3-0.3,0.3c-0.6,0.1-1.1,0.2-1.6,0.2c-1,0-2-0.1-3.1-0.1c-0.6,0-1.1-0.1-1.7-0.1c-0.4,0-0.7,0-1.1,0
			c-0.5,0-1.1-0.1-1.7-0.1c0.2,0.8,0.6,1,1.1,1.3c1.5,0.9,3.2,1.2,4.8,0.6c0.9-0.3,1.6-0.3,2.4-0.1c0.5,0.1,1,0.3,1.5,0.6
			c0.2,0.1,0.2,0.5,0.3,0.8c-0.2,0-0.5,0.1-0.7,0.1c-0.1,0-0.2,0-0.3,0.1c0.1,0.2,0.3,0.2,0.4,0.4c0.1,0.2,0.4,0.6,0.3,0.7
			c-0.3,0.7,0,1.3,0.8,1.4c0.2,0,0.3,0.2,0.5,0.2c0,0.1,0,0.2,0,0.3c-0.3,0.1-0.7,0.1-1,0.2c-0.3,0.1-0.9,0.1-1,0.3
			c-0.2,0.9-0.4,1.8-0.3,2.6c0.1,0.5,0.1,1.1,0.1,1.6c-0.1,1.2-0.2,2.3-0.3,3.5c0,0.3-0.1,0.7,0,1c0.2,0.6,0,0.9-0.5,1.3
			c-0.1,0.1-0.3,0.3-0.3,0.5c-0.2,1-0.3,2-0.6,3c-0.2,0.9-0.8,1.7-1,2.6c-0.4,1.7-0.6,3.4-0.8,5.1c0,0.2-0.1,0.3-0.1,0.5
			c-0.1,0.4-0.2,0.8-0.3,1.2c0.1,0,0.1,0.1,0.2,0.1c0.3-0.2,0.6-0.4,1.1-0.8c0.1,0.6,0.2,0.9,0.2,1.3c0,0.4-0.1,0.8-0.1,1.2
			c0,0.6-0.1,1.1-0.9,1.2c-0.3,0-0.5,0.1-0.8,0.1c-0.7,0.1-1.3,0.2-1.2,1.2c-0.3-0.2-0.6-0.4-0.7-0.7c-0.2-0.7-0.3-1.3-0.4-2
			c-0.2-2.1-0.5-4.2-0.7-6.3c-0.1-1.3,0-2.6,0-3.9c0-0.3,0-0.6-0.1-0.9c-0.2-1.6-0.5-3.1-0.6-4.7c-0.1-1.5-0.1-3.1,0-4.6
			c0-0.5,0.2-1,0.4-1.4c0.5-0.9,1-1.7,1.5-2.6c0.3-0.4,0.6-0.7,0.9-1.1c0.2-0.2,0.4-0.2,0.4-0.3c0-0.1-0.4-0.1-0.7,0
			c-1.8,0.2-6.5,1.4-7.8,1.4c-1.6,0.3-1,0.7-0.5,1.8c0.3,0.7,0.7,1.9,0.8,2.5c0.1,1.2,0.3,2.4,0.4,3.7c0.1,0.8,0,1.7,0.2,2.5
			c0.2,0.7,0.4,1,1,1.8c0.2,0.7,0.4,1.3,0.5,1.9c0.1,0.6,0,1.1,0.1,1.7c0,0.7,0.2,1.4,0.1,2.1c-0.2,1.3-0.6,2.6-0.5,4
			c0.1,0.9-0.4,1.4-1.1,1.8c-0.3,0.2-0.8,0.7-0.7,1c0.1,0.8-0.2,1.1-0.7,1.4c-0.1,0.1-0.2,0.4-0.2,0.6c0,0.6,0.2,1.2,0.1,1.8
			c-0.1,0.8,0.7,2.5,0.7,2.5c-0.1,0.4-0.2,0.8-0.2,1.2c0,2.3,0.1,4.6-0.1,6.8c-0.1,0.9,0.1,1.7,0.3,2.5c0.2,1.3,0.5,2.6,0.7,3.9
			c0.1,1.3-0.2,2.7,0.2,3.9c0.4,1.3,0.3,2.7,0.6,4c0.4,1.3,0.1,2.7,0.5,4.1c0.2,0.5,0.2,1.1,0.3,1.7c0.1,0.2,0.4,0.5,0.6,0.8
			c0.4,0.7,0.7,1.5,1,2.3c0.1,0.3,0.3,0.5,0.4,0.7c0.4,1.5,0.7,3,1.1,4.5c0.4,1.3,0.7,2.6,1.7,3.7c0.3,0.3,0.3,0.8,0.4,1.2
			c0.1,0.7,0.2,1.3,0.2,2c0,0.5,0,1-0.1,1.6c-0.1,0.5-0.6,0.7-0.9,0.6c-0.3-0.1-0.6-0.5-0.7-0.8c-0.1-0.6,0-1.3,0-1.9
			c0-0.4-0.2-0.9-0.3-1.3c-0.1,0-0.2,0-0.3,0.1c0,0.3-0.1,0.6,0,0.9c0.2,0.9,0.2,1.8-0.3,2.6c-0.8-0.1-1.2-0.5-1.1-1.4
			c0-0.3-0.2-0.7-0.3-1.1c-0.1,0-0.1,0-0.2,0c-0.2,0.3-0.4,0.7-0.6,1c-0.2-0.7-0.7-1.1-1.3-1.4c-0.2-0.1-0.4-0.5-0.5-0.8
			c-0.4-1.2-0.5-5.1-0.5-5.3c0-0.3,0-0.7,0-1c0-0.7,0-1.4,0-2c0-0.7,0.2-1.4-0.6-1.9c-0.2-0.1-1.7-12.4-1.7-13c0-0.2,0-0.4-0.1-0.6
			c-0.2-1-0.6-2-0.6-3c0-1.5-0.2-3-0.6-4.4c0-0.2-0.1-0.4-0.2-0.5c-0.8-1.1-0.9-2.4-1-3.7c-0.2-2.2,0.1-4,0.8-6.1
			c0.4-1.2,0.5-2.4,0.6-3.7c0.1-1.6-0.1-3.1-0.1-4.7c0-0.5,0.6-2.1,0.5-2.3c-0.1,0-0.9-4.9-1-4.9c-0.2-0.2-0.4-0.5-0.5-0.7
			c-0.2-0.4-1.1-1.5-1.2-1.9v0.3l0,70.2c0.1,0,19.4,0,19.4,0s-0.1-59.3,0-60.8c0.2-1.8,0.4-3.6,0.6-5.4c0.1-1.4,0.2-2.7,0.3-4.1
			c0.2-2.4,0.5-4.8,0.7-7.2c0.1-2,0.4-4,1.1-5.9c1-2.6,1.6-5.4,1.4-8.2c-0.1-1.1-0.1-2.1,0-3.2c0.1-1-0.2-2-0.7-2.8
			c-1.7-2.9-1.9-6.2-2.2-9.5c0-0.5-0.1-1,0-1.4c0-0.9-0.1-1.9,0.1-2.7c1.1-3,1.9-6.1,2.3-9.2c0.3-2.6,0.4-5.2,0.6-7.9
			c0.2-1.9,0.6-3.7,0.8-5.6c0.1-0.8,0.5-1,1.2-1.2c3.6-1.1,7.2-2.3,10.8-3.5c3.7-1.2,6.3-3,10-4.2c1.3-0.4,3.1-2.6,4.2-3.3
			c2.7-1.7,5.5-4.1,8-5.9c0.1,0,24.8,0,24.8,0L173.3,28.7z M165.3,37c-0.1,0.1-0.1,0.4-0.1,0.4c-0.4,0.6-0.6,1.3-0.5,1.6
			c0.1,0.5,0,1.1-0.4,1.4c-0.3,0.2-0.4,0.8-0.3,1.3c0,0.3-0.7,0.9-0.9,0.9c-0.3,0.1-0.6-0.1-1,0.1c-0.7,0.3-1.2,0.3-1.9,0.3
			c-0.6,0-2.8,0.4-3.6,0.3c-0.9-0.2-1.7,0.2-2.5,0.3c-1.1,0.2-1.7,1.1-2.5,1.6c-2.6,1.8-10.2,6.9-10.9,7.6c-0.4,0.4-2.6,1.3-3.1,1.7
			c-0.7,0.5-1.3,1-2,1.5c-1.5,0.9-3.1,1.3-4.8,1.4c-0.2,0-1.4,0.8-1.8,1c-0.5,0.3-1,0.4-1.5,0.7c-1,0.6-2.1,0.6-3.2,0.7
			c-0.1,0-0.3-0.2-0.6-0.3c0.5-0.3,1-0.5,1.3-0.7c0.4-0.3,0.7-0.7,1.1-1c0.3-0.3,0.3-0.5,0-0.5c-1.5,0.1-2.8,0.9-4.1,1.5
			c-0.5,0.2-0.9,0.4-1.3,0c-0.4-0.4-0.7-0.9-1.1-1.3c-0.5-0.6-0.4-1.4,0.3-1.8c1.2-0.7,4.3-2.2,4.5-2.2c1.7-0.2,3.4-0.4,5-0.6
			c0.5-0.1,1-0.3,1.3-0.6c1-1,2-1.8,3.4-2.2c0.4-0.1,4.4-2,4.4-2.1c0,0,11.4-6.1,12-7.1c0.6-0.9,1.4-1.5,1.8-2.6
			c0.1-0.2,0.5-0.4,0.9-0.9c0.1-0.1,0.3-0.2,0.5-0.3c0.7-0.5,1.5-0.9,1.7-1.8c0.3-1.1,1.2-1.7,1.6-0.3c0,0.8,0.2,1.5-0.4,2.3
			c-0.3,0.4,1.3-0.6,2.1-0.9c0.7-0.3,1.7-0.2,2.4-0.4c3.6-0.7,3.7-0.8,4.3,0.3C165.4,36.2,165.3,36.7,165.3,37z"/>
	</g>
	<path fill-rule="evenodd" clip-rule="evenodd" fill="#5E4428" d="M106.5,144.7c0.7,0.7-0.3,0.9,0,4.3c0.3,3.4-1.7,19.2-3.3,23.2
		c-1.6,3.8-0.7,0.8-0.3-3.6c0.3-2.6,0.5-18.6,1.6-19.5C105.2,149,106.5,144.7,106.5,144.7z"/>
</g>
</svg>
